<svg width="1600" height="80" viewBox="0 0 1600 80" fill="none" xmlns="http://www.w3.org/2000/svg">
<g clip-path="url(#clip0_2375_4798)">
<path fill-rule="evenodd" clip-rule="evenodd" d="M1600 0H0L37.4148 9.50128L92.4918 14.6502H120L147.569 19.7991C147.569 19.7991 151.182 20.4064 165.714 20.7582C177.109 21.034 189.017 21.0349 198.095 20.9663C207.228 20.8974 213.496 20.7582 213.496 20.7582L247.619 27.5472L266.667 29.434L308.571 32.4528L335.238 37.7359L387.733 40.2566H430.476L470.4 43.402H509.989H549.577L580.952 48.3019L601.905 47.5472L636 53.8623C636 53.8623 664.533 49.254 697.6 49.8961C708.781 50.1164 709.493 50.6188 710.438 51.2888C711.448 52.0025 712.724 52.9065 727.219 53.8623C736.644 54.486 752.381 57.7359 752.381 57.7359C752.381 57.7359 777.771 57.7365 803.81 57.9174C824.846 58.0637 846.305 58.3276 855.139 58.804C858.895 59.0044 859.855 59.2314 861.116 59.5285C864.095 60.2325 868.739 61.3295 916.19 63.3962C922.96 63.691 929.55 63.7195 937.067 63.7519C946.636 63.7931 969.15 58.1922 984 58.804C1011.28 59.9278 1026.15 66.5297 1051.43 67.3697C1074.54 68.1374 1104.76 70.9434 1104.76 70.9434C1104.76 70.9434 1141 70.9434 1160 69.5C1162.26 70.3165 1176.81 71.1738 1192 71.7644C1203.66 72.2178 1215.7 72.514 1222.86 72.514C1237.29 72.9814 1254.35 74.2499 1269 75.5317C1269 77.8347 1287 80 1287 80C1287 80 1326.76 78.511 1353 78.2142C1368.74 78.0361 1385.32 77.8797 1398.1 77.8347C1410.13 77.7925 1419.06 78.8927 1432 78.2142C1438.19 77.8898 1448.4 75.7866 1454.5 75.5317C1459.26 75.3322 1463.97 75.1753 1468.57 75.0943C1478.1 74.9266 1493 73.5884 1493 73.5884C1502.23 72.9033 1507.79 75.7665 1515 75.2317C1521.73 74.7323 1528.52 74.2282 1537.14 73.5884C1550.45 73.5884 1561.59 70.9434 1572 70.9434C1580.79 70.9434 1588.76 73.5884 1600 73.5884V80V0Z" fill="black"/>
</g>
<defs>
<clipPath id="clip0_2375_4798">
<rect width="1600" height="80" fill="white"/>
</clipPath>
</defs>
</svg>
