<svg width="420" height="80" viewBox="0 0 420 80" fill="none" xmlns="http://www.w3.org/2000/svg">
<g clip-path="url(#clip0_2375_4793)">
<path fill-rule="evenodd" clip-rule="evenodd" d="M420 0H0L9.82139 9.50128L24.2791 14.6502L31.508 17.2246L38.7369 19.7991C38.7369 19.7991 39.6853 20.4064 43.5 20.7582C46.491 21.034 49.617 21.0349 52 20.9663C54.3973 20.8974 56.0428 20.7582 56.0428 20.7582L65 27.5472L70 29.434L81 32.4528L88 37.7358L101.78 40.2566H113L123.48 43.402H133.872H144.264L152.5 48.3019L158 47.5472L163.509 51.546C163.509 51.546 174.44 49.254 183.12 49.8961C186.055 50.1165 186.242 50.6188 186.49 51.2888C186.755 52.0025 187.09 52.9065 190.895 53.8623C193.369 54.486 197.5 57.7358 197.5 57.7358C197.5 57.7358 204.165 57.7365 211 57.9174C216.522 58.0637 222.155 58.3276 224.474 58.804C225.46 59.0044 225.712 59.2314 226.043 59.5285C226.825 60.2325 228.044 61.3295 240.5 63.3962C242.277 63.691 244.007 63.7195 245.98 63.7518C248.492 63.7931 251.397 63.8409 255.295 64.4527C262.456 65.5765 269.364 66.5297 276 67.3697C282.066 68.1374 290 70.9434 290 70.9434C290 70.9434 312.66 71.485 321 72.514C329.683 73.5854 342 78.8679 342 78.8679C342 78.8679 358.053 77.9547 367 77.8347C370.16 77.7925 373.557 77.114 376.955 76.4355C379.852 75.8574 382.749 75.2789 385.5 75.0943C388 74.9266 391.5 76.9811 391.5 76.9811L403.5 73.5884H420V80V0Z" fill="black"/>
</g>
<defs>
<clipPath id="clip0_2375_4793">
<rect width="420" height="80" fill="white"/>
</clipPath>
</defs>
</svg>
