<svg width="800" height="80" viewBox="0 0 800 80" fill="none" xmlns="http://www.w3.org/2000/svg">
<g clip-path="url(#clip0_2375_4795)">
<path fill-rule="evenodd" clip-rule="evenodd" d="M800 0H0L18.7074 9.50128L46.2459 14.6502H60L73.7846 19.7991C73.7846 19.7991 75.591 20.4064 82.8571 20.7582C88.5543 21.034 94.5086 21.0349 99.0476 20.9663C103.614 20.8974 106.748 20.7582 106.748 20.7582L123.81 27.5472L133.333 29.434L154.286 32.4528L167.619 37.7359L193.867 40.2566H215.238L235.2 43.402H254.994H274.789L290.476 48.3019L300.952 47.5472L311.446 51.546C311.446 51.546 332.267 49.254 348.8 49.8961C354.39 50.1164 354.747 50.6188 355.219 51.2888C355.724 52.0025 356.362 52.9065 363.61 53.8623C368.322 54.486 376.19 57.7359 376.19 57.7359C376.19 57.7359 388.886 57.7365 401.905 57.9174C412.423 58.0637 423.152 58.3276 427.57 58.804C429.448 59.0044 429.928 59.2314 430.558 59.5285C432.048 60.2325 434.37 61.3295 458.095 63.3962C461.48 63.691 464.775 63.7195 468.533 63.7519C473.318 63.7931 478.851 63.8409 486.276 64.4527C499.916 65.5765 513.074 66.5297 525.714 67.3697C537.269 68.1374 552.381 70.9434 552.381 70.9434C552.381 70.9434 570.5 70.9434 580 69.5C581.131 70.3165 588.405 71.1738 596 71.7644C601.831 72.2178 607.851 72.514 611.429 72.514C618.643 72.9814 627.173 74.2499 634.5 75.5317C634.5 77.8347 643.5 80 643.5 80C643.5 80 663.378 78.511 676.5 78.2142C684.369 78.0361 692.659 77.8797 699.048 77.8347C705.067 77.7925 709.528 78.8927 716 78.2142C719.096 77.8898 724.201 75.7866 727.248 75.5317C729.632 75.3322 731.986 75.1753 734.286 75.0943C739.048 74.9266 746.5 73.5884 746.5 73.5884C751.116 72.9033 753.897 75.7665 757.5 75.2317C760.865 74.7323 764.261 74.2282 768.571 73.5884C775.227 73.5884 780.796 70.9434 786 70.9434C790.393 70.9434 794.382 73.5884 800 73.5884V80V0Z" fill="black"/>
</g>
<defs>
<clipPath id="clip0_2375_4795">
<rect width="800" height="80" fill="white"/>
</clipPath>
</defs>
</svg>
