<svg width="13" height="13" viewBox="0 0 13 13" fill="none" xmlns="http://www.w3.org/2000/svg">
<path d="M4.25365 1.00145C4.25365 1.00145 2.93529 1.59889 2.37512 2.25069C1.81414 2.90296 0.315664 5.52177 1.18987 7.544C2.06326 9.5667 2.94079 10.8985 4.3591 11.4432C5.77781 11.9868 6.69336 12.4097 8.47421 11.5539C10.2563 10.6983 10.6324 10.2886 10.6849 10.2534C10.7383 10.2178 11.7044 9.10821 11.7178 9.05617C11.7312 9.00413 12.8781 6.25801 12.5562 4.643C12.2331 3.02773 12.5393 2.8712 11.2369 1.95328C9.93327 1.0351 8.52488 0.744612 8.43691 0.716434C8.34894 0.688257 4.87348 0.701372 4.25365 1.00145Z" fill="black"/>
</svg>
