<svg width="800" height="80" viewBox="0 0 800 80" fill="none" xmlns="http://www.w3.org/2000/svg">
<g clip-path="url(#clip0_2405_4962)">
<path fill-rule="evenodd" clip-rule="evenodd" d="M577.5 37.5C575.489 37.4006 572.802 40 571 40L565 41C558.596 41 559.654 43.2779 554.5 43C544.891 42.482 528.103 41.4424 515.5 43C505.508 44.2349 492.506 39.9487 486 40C479.898 40.048 466.432 42.0072 461.5 43C457.092 48.7778 443.971 48.0387 442 48.7295C437.128 50.4369 423.893 50.4233 410 52C390.317 54.2338 377.131 45.8119 362.802 45.8119L313.078 40C284 40 280 45.8119 280 45.8119L250 55.5L216.5 60C216.5 60 190.379 61.0556 143.5 65.5C114.434 68.2556 58.9193 46.4247 47.9999 48.7295C41.3079 50.142 -5.92867e-05 60 -5.92867e-05 60L-6.10352e-05 79.9999L800 80L800 38.5C800 38.5 719.854 39.1179 714.5 40C699.809 42.3193 677 37.5 677 37.5L671.5 35.5L652.5 36.5C652.5 36.5 629.718 33.2066 624 34C614.794 35.277 598.819 32.3813 595 34C592.744 34.9563 585.038 38.3893 583.5 38.5C573.438 39.2234 582.312 37.7379 577.5 37.5Z" fill="black"/>
</g>
<defs>
<clipPath id="clip0_2405_4962">
<rect width="800" height="80" fill="white" transform="translate(800 80) rotate(-180)"/>
</clipPath>
</defs>
</svg>
