<svg width="800" height="80" viewBox="0 0 800 80" fill="none" xmlns="http://www.w3.org/2000/svg">
<g clip-path="url(#clip0_2405_4960)">
<path fill-rule="evenodd" clip-rule="evenodd" d="M563 30C563 30 559.254 31.7949 557.452 31.7949L538.089 31.7949C531.685 31.7949 526.274 31.5032 521.12 31.2253C511.511 30.7073 502.794 30.2373 490.191 31.7949C480.199 33.0298 472.507 33.0904 466 33.1416C459.898 33.1897 413.432 60.0072 408.5 61C395.092 63.6987 393.471 62.3092 391.5 63C386.628 64.7074 377 65.5 377 65.5L372.5 57L313.5 57C312 57 293.5 55 293.5 55L261.5 51.5L201 65.5C201 65.5 149 63.4988 123.5 61C118.745 61 93.1971 55.4201 80 55C68.2185 54.625 68.2166 51.5 63.5 51.5C56.1465 52.0586 64 54.0031 51.5 57C22.3739 50.164 2.49155e-06 51.5 2.49155e-06 51.5L0 80L800 80.0001L800 45.5C800 45.5 745.351 50.4843 739.5 51.5C734.245 52.4122 723.354 44.6179 718 45.5C703.309 47.8193 712.153 49.8626 704 50C695.847 50.1374 652 41.5 652 41.5C645.212 42.4864 618.005 49.84 609.5 50C601.609 50.1484 600.718 44.7066 595 45.5C585.794 46.777 586.819 41.3813 583 43C580.744 43.9563 576 39.5 576 39.5L563 30Z" fill="black"/>
</g>
<defs>
<clipPath id="clip0_2405_4960">
<rect width="800" height="80" fill="white"/>
</clipPath>
</defs>
</svg>
