<svg width="800" height="80" viewBox="0 0 800 80" fill="none" xmlns="http://www.w3.org/2000/svg">
<g clip-path="url(#clip0_2405_4958)">
<path fill-rule="evenodd" clip-rule="evenodd" d="M558 43C555.989 42.9 552 46 552 46L536 37C529.595 37 524.154 33.1265 519 32.8469C509.391 32.3256 499 35.7324 497.5 43C496 50.2676 475.006 47.7472 468.5 47.7987C462.398 47.8471 463.932 46.7997 459 47.7987C452.092 53.1097 441.314 49.3434 430 53.3333C425.128 55.0515 404 53.3333 404 53.3333L398.5 55L333 46C318.755 47.202 292.5 43 292.5 43L248 46C248 46 213.607 43.0699 191 43C184.524 42.98 167.5 53.3333 167.5 53.3333L146.5 49.5C146.5 49.5 132.717 47.7987 128 47.7987C120.647 48.3608 103.5 47.7987 103.5 47.7987C96.4177 46.126 77.1703 54.2162 69.5 53.3333C45.6263 50.5855 19.5 66 19.5 66L0 79.9999L800 80L774 66.4151C741.5 49.3082 743 47.7807 725.5 42C710.809 44.3339 694.153 45.8617 686 46C677.847 46.1383 648 53.3333 648 53.3333C641.212 54.3259 634.005 57.339 625.5 57.5C617.609 57.6494 613.718 38.4469 608 39.2453C598.794 40.5304 588.819 40.3711 585 42C582.744 42.9623 570.538 42.8886 569 43C558.938 43.7279 562.812 43.2394 558 43Z" fill="black"/>
</g>
<defs>
<clipPath id="clip0_2405_4958">
<rect width="800" height="80" fill="white"/>
</clipPath>
</defs>
</svg>
