<svg width="1600" height="120" viewBox="0 0 1600 120" fill="none" xmlns="http://www.w3.org/2000/svg">
<g clip-path="url(#clip0_2389_4894)">
<path fill-rule="evenodd" clip-rule="evenodd" d="M449 113.775C453.576 113.974 466.452 113.775 470 113.775L520.5 119C547.077 119 572.077 121.409 594.5 119C603.031 118.084 602.827 114.764 613.5 113.775C633.483 111.922 626.988 113.851 640 113.775C652.204 113.703 653.635 115.264 663.5 113.775C666.422 113.334 703.057 109.379 707 108.343C716.744 105.782 735.715 110.708 763.5 108.343C802.866 104.992 846.945 102.017 875.602 102.017L975.051 110.735C1003.54 108.944 1062.64 110.735 1062.64 110.735L1107 110.935L1145.5 110.735L1155.46 106.968L1182.1 104.347C1182.1 104.347 1176.52 112.153 1228 105.997C1231.33 105.599 1239.89 103.092 1244 100.997C1253.36 99.7639 1260.06 103.782 1265 103.343C1271.35 102.777 1276.73 103.395 1284.1 102.87C1288.47 102.56 1295.98 104.273 1303.27 105.935C1310.05 107.48 1316.63 108.981 1320.32 108.775C1329.48 108.262 1337.75 105.387 1345.47 102.704C1352.06 100.413 1358.25 98.2607 1364.26 97.8352C1378.59 96.8204 1390.29 98.9828 1401.2 100.997C1408.82 102.405 1416.04 103.741 1423.51 103.869C1432.99 104.032 1442.98 101.86 1453.29 99.616C1460.95 97.9475 1468.8 96.2398 1476.76 95.4239C1479.17 95.2383 1481.52 95.0547 1483.83 94.8731C1491.21 94.292 1498.17 99.9166 1506 100.997C1512.99 101.961 1522.46 103.81 1527.43 103.36C1531.13 103.023 1560.02 98.7229 1564.5 96.5C1568.31 94.6123 1600 92.5 1600 92.5V0H0V120C26.9922 117.676 53.6165 122.5 80.5 119C91.0092 117.632 104.791 115.098 115.5 113.775C144.883 110.296 198.194 113.981 214.5 113.775C230.805 113.569 282.366 110.686 282.366 110.686C295.926 109.208 310.897 109.128 325.483 109.049C339.044 108.976 352.271 108.905 363.719 107.714C381.898 105.823 394.568 114.489 409 110.735C417.821 108.441 421.858 110.856 425 110.686C436.642 110.059 427.629 110.603 434.947 110.686C440.366 110.748 444.237 113.568 449 113.775Z" fill="black"/>
</g>
<defs>
<clipPath id="clip0_2389_4894">
<rect width="1600" height="120" fill="white"/>
</clipPath>
</defs>
</svg>
