<svg width="500" height="90" viewBox="0 0 500 90" fill="none" xmlns="http://www.w3.org/2000/svg">
<g clip-path="url(#clip0_2393_4906)">
<path fill-rule="evenodd" clip-rule="evenodd" d="M140.312 85.331C141.743 85.4802 145.766 85.331 146.875 85.331L162.656 89.25C170.962 89.25 178.774 91.0565 185.781 89.25C188.447 88.5626 188.383 86.073 191.719 85.331C197.963 83.9417 195.934 85.3886 200 85.331C203.814 85.277 204.261 86.4478 207.344 85.331C208.257 85.0001 219.705 82.0341 220.938 81.257C223.983 79.3361 229.911 83.0307 238.594 81.257C250.896 78.7438 264.67 76.513 273.626 76.513L304.703 83.0515C313.605 81.7077 332.074 83.0515 332.074 83.0515L345.938 83.2013L357.969 83.0515C366.648 75.1727 374.085 85.2718 383.75 82.498C388.527 81.1257 391.251 81.3738 395.312 80.507C397.297 80.0831 398.977 77.5464 401.28 77.1525C402.646 76.9197 404.993 78.2044 407.271 79.4513C411.89 81.9771 422.014 79.1099 426.33 78.3764C430.808 77.6153 434.465 74.2371 437.874 75.748C440.255 76.8039 442.512 77.8056 444.846 77.9018C447.808 78.024 450.93 80.3946 454.152 78.712C456.546 77.4606 458.999 76.1798 461.487 75.5679C462.24 75.4287 462.974 75.291 463.696 75.1549C466.002 74.719 468.178 74.9374 470.625 75.748C472.809 76.471 475.77 77.8576 477.323 77.5197C478.479 77.2675 487.506 74.0422 488.906 72.375C490.097 70.9592 500 69.375 500 69.375V0H0V90C8.43506 88.2574 16.7552 91.8751 25.1562 89.25C28.4404 88.2238 32.7472 86.3233 36.0938 85.331C45.2759 82.7218 61.9356 85.4857 67.0312 85.331C72.1266 85.1764 88.2395 83.0149 88.2395 83.0149C92.477 81.9063 97.1554 81.8459 101.714 81.787C105.951 81.7323 110.085 81.6788 113.662 80.7857C119.343 79.3672 123.302 85.8667 127.812 83.0515C130.569 81.3309 131.831 83.1421 132.812 83.0149C136.451 82.5442 133.634 82.9525 135.921 83.0149C137.614 83.0611 138.824 85.1757 140.312 85.331Z" fill="black"/>
</g>
<defs>
<clipPath id="clip0_2393_4906">
<rect width="500" height="90" fill="white"/>
</clipPath>
</defs>
</svg>
