<svg width="768" height="90" viewBox="0 0 768 90" fill="none" xmlns="http://www.w3.org/2000/svg">
<g clip-path="url(#clip0_2394_4909)">
<path fill-rule="evenodd" clip-rule="evenodd" d="M215.52 85.331C217.716 85.4802 223.897 85.331 225.6 85.331L249.84 89.25C262.597 89.25 274.597 91.0565 285.36 89.25C289.455 88.5626 289.357 86.073 294.48 85.331C304.072 83.9417 300.954 85.3886 307.2 85.331C313.058 85.277 313.745 86.4478 318.48 85.331C319.883 85.0001 337.467 82.0341 339.36 81.257C344.037 79.3361 353.143 83.0307 366.48 81.257C385.376 78.7438 406.534 76.513 420.289 76.513L468.024 83.0515C481.698 81.7077 510.066 83.0515 510.066 83.0515L531.36 83.2013L549.84 83.0515C563.172 75.1727 574.594 85.2718 589.44 82.498C596.778 81.1257 600.962 81.3738 607.2 80.507C610.248 80.0831 612.829 77.5464 616.367 77.1525C618.464 76.9197 622.069 78.2044 625.568 79.4513C632.663 81.9771 648.213 79.1099 654.843 78.3764C661.722 77.6153 667.338 74.2371 672.575 75.748C676.232 76.8039 679.698 77.8056 683.283 77.9018C687.834 78.024 692.629 80.3946 697.578 78.712C701.255 77.4606 705.023 76.1798 708.843 75.5679C710 75.4287 711.128 75.291 712.237 75.1549C715.779 74.719 719.122 74.9374 722.88 75.748C726.235 76.471 730.782 77.8576 733.168 77.5197C734.944 77.2675 748.81 74.0422 750.96 72.375C752.789 70.9592 768 69.375 768 69.375V0H0V90C12.9563 88.2574 25.7359 91.8751 38.64 89.25C43.6844 88.2238 50.2997 86.3233 55.44 85.331C69.5438 82.7218 95.1331 85.4857 102.96 85.331C110.786 85.1764 135.536 83.0149 135.536 83.0149C142.045 81.9063 149.231 81.8459 156.232 81.787C162.741 81.7323 169.09 81.6788 174.585 80.7857C183.311 79.3672 189.393 85.8667 196.32 83.0515C200.554 81.3309 202.492 83.1421 204 83.0149C209.588 82.5442 205.262 82.9525 208.775 83.0149C211.376 83.0611 213.234 85.1757 215.52 85.331Z" fill="black"/>
</g>
<defs>
<clipPath id="clip0_2394_4909">
<rect width="768" height="90" fill="white"/>
</clipPath>
</defs>
</svg>
