<?xml version="1.0" encoding="UTF-8" standalone="no"?>
<!DOCTYPE svg PUBLIC "-//W3C//DTD SVG 1.1//EN" "http://www.w3.org/Graphics/SVG/1.1/DTD/svg11.dtd">
<svg width="100%" height="100%" viewBox="0 0 1562 383" version="1.1" xmlns="http://www.w3.org/2000/svg" xmlns:xlink="http://www.w3.org/1999/xlink" xml:space="preserve" xmlns:serif="http://www.serif.com/" style="fill-rule:evenodd;clip-rule:evenodd;stroke-linejoin:round;stroke-miterlimit:2;">
    <g transform="matrix(1,0,0,1,-7468,-976)">
        <g transform="matrix(2.17411,0,0,0.902088,1500.33,-165.18)">
            <path d="M2744.87,1689.72L2744.87,1685.19C2744.87,1685.19 2785.13,1644.28 2826.14,1614.1C2835.81,1606.99 2842.84,1617.91 2852.46,1610.13C2881.07,1586.98 2909.06,1552.23 2919.42,1544.06C2948.03,1521.5 3002.63,1499.8 3019.83,1498.85C3037.05,1497.9 3036.54,1464.98 3038.6,1464.69C3046.5,1463.58 3069.13,1448.33 3077.63,1447.11C3081.56,1446.54 3089.99,1466.08 3093.98,1465.55C3114.96,1462.71 3141.61,1436.3 3161.92,1440.17C3182.01,1444 3198.37,1427.17 3219.15,1424.45C3250.67,1420.32 3283.35,1428.19 3283.35,1428.19L3311.98,1394.06C3311.98,1394.06 3351.84,1383.15 3369.5,1349.04C3387.16,1314.91 3391.55,1316.76 3406.12,1304.22C3420.68,1291.68 3463.54,1267.31 3463.54,1267.31L3463.54,1689.72L2744.87,1689.72Z" style="fill:rgb(59,112,125);"/>
        </g>
    </g>
</svg>
