<?xml version="1.0" encoding="UTF-8" standalone="no"?>
<!DOCTYPE svg PUBLIC "-//W3C//DTD SVG 1.1//EN" "http://www.w3.org/Graphics/SVG/1.1/DTD/svg11.dtd">
<svg width="100%" height="100%" viewBox="0 0 299 297" version="1.1" xmlns="http://www.w3.org/2000/svg" xmlns:xlink="http://www.w3.org/1999/xlink" xml:space="preserve" xmlns:serif="http://www.serif.com/" style="fill-rule:evenodd;clip-rule:evenodd;stroke-linejoin:round;stroke-miterlimit:2;">
    <g transform="matrix(1,0,0,1,-4375,-5255)">
        <g transform="matrix(0.395031,0,0,0.395031,2316.72,4720.3)">
            <path d="M5940.18,1353.48L5968.82,1353.33L5968.82,2104.62L5210.82,2104.62L5210.82,2076.75L5218.58,2074.55L5219.67,2074.15L5219.67,2074.13L5223.16,2072.76L5230.14,2069.97L5236.41,2069.27L5239.2,2072.06L5241.99,2072.76L5244.78,2069.27L5251.76,2065.09L5256.64,2064.39L5265.01,2063.69L5265.7,2062.99L5266.4,2062.99L5267.1,2061.6L5267.8,2054.63L5269.79,2052.14L5273.38,2049.74L5277.56,2047.65L5285,2046.26L5285.23,2046.26L5292.97,2045.35L5302.67,2044.86L5303.37,2046.26L5304.06,2050.44L5300.48,2055.22L5295.69,2058.81L5288.72,2061.6L5283.84,2064.39L5283.84,2065.79L5288.72,2067.88L5290.11,2068.11L5290.11,2068.57L5292.9,2068.57L5296.39,2066.48L5296.49,2066.09L5300.16,2063.55L5305.46,2060.9L5309.94,2058.85L5310.34,2058.81L5313.83,2057.07L5322.2,2053.23L5323.24,2052.69L5323.59,2052.53L5334.75,2046.95L5336.15,2046.26L5336.73,2045.79L5338.09,2044.99L5341.03,2043.47L5344.52,2041.21L5346.61,2039.98L5346.64,2039.84L5352.89,2035.8L5354.45,2034.75L5356.37,2033.7L5356.37,2033.47L5363.35,2028.82L5366.69,2026.1L5366.83,2026.03L5367.07,2025.8L5374.51,2019.75L5380.78,2014.87L5384.97,2008.6L5384.27,2006.5L5382.18,2006.5L5380.09,2009.29L5377.3,2010.69L5376.43,2011.38L5370.32,2014.87L5363.35,2018.36L5357.07,2022.54L5356.61,2023.01L5353.82,2024.75L5353.58,2024.64L5352.89,2025.33L5348.23,2028.24L5348,2028.12L5347.31,2028.82L5343.82,2030.22L5339.63,2032.31L5334.13,2035.81L5334.06,2035.8L5331.96,2037.19L5331.11,2037.89L5330.57,2037.89L5326.51,2041.44L5326.38,2041.38L5323.59,2043.7L5318.71,2046.96L5318.54,2047.13L5316.62,2048.35L5311.74,2049.05L5312.43,2046.26L5318.2,2040.93L5318.71,2040.68L5318.91,2040.28L5321.5,2037.89L5328.48,2034.4L5333.36,2028.82L5333.7,2028.12L5336.84,2023.94L5339.63,2015.57L5343.82,2010.69L5350.79,2006.5L5353.58,2004.64L5356.37,2003.02L5362.19,1999.53L5364.74,1998.13L5371.02,1991.86L5371.72,1991.16L5373.81,1989.07L5380.09,1985.58L5380.78,1983.49L5382.18,1983.49L5386.08,1982.09L5386.36,1982.09L5388.45,1981.39L5389.85,1980.75L5391.94,1980L5402.06,1975.12L5402.4,1975.12L5407.98,1972.33L5408,1972.25L5409.33,1971.61L5409.38,1971.63L5410.33,1971.12L5412.17,1970.24L5419.84,1966.05L5419.84,1965.72L5423.18,1963.76L5428,1962.01L5432.86,1960.47L5433.09,1960.47L5435.18,1959.77L5435.62,1959.6L5437.28,1959.08L5450.91,1953.52L5453.32,1952.8L5453.08,1952.64L5456.11,1951.4L5465.17,1949.31L5479.82,1942.34L5481.79,1941.6L5481.91,1941.64L5490.98,1938.15L5502.14,1938.15L5506.32,1938.85L5520.27,1938.85L5525.15,1939.55L5529.34,1940.94L5532.13,1943.73L5533.65,1945L5534.92,1946.52L5535.65,1946.67L5536.31,1947.22L5537.45,1947.03L5538.41,1947.22L5539.45,1946.7L5540.5,1946.52L5541.89,1945.48L5542.59,1945.13L5543.29,1944.43L5546.08,1942.34L5555.14,1938.85L5562.82,1937.45L5563.77,1936.86L5564.21,1936.76L5566.16,1935.36L5568.4,1933.97L5573.98,1929.78L5577.81,1926.99L5580.95,1924.9L5580.95,1924.71L5581.65,1924.2L5589.62,1920.22L5591.88,1919.55L5598.39,1917.93L5599.16,1917.41L5599.78,1917.23L5599.78,1917L5600.48,1916.53L5602.57,1913.05L5606.06,1909.56L5605.9,1909.51L5606.41,1908.92L5606.76,1908.86L5609.8,1905.31L5611.93,1903.61L5614.93,1902.48L5621.4,1900.49L5629.77,1900.49L5630.35,1899.91L5631.17,1899.79L5633.66,1897.55L5633.96,1897.7L5636.75,1894.91L5636.78,1894.74L5638.14,1893.52L5641.63,1891.19L5643.72,1890.03L5643.72,1889.8L5644.42,1889.33L5647.9,1887.94L5650.7,1887.24L5651.14,1886.64L5651.39,1886.54L5651.86,1885.69L5652.79,1884.45L5652.73,1884.09L5655.58,1878.87L5662.55,1875.38L5669.12,1870.79L5676.5,1867.71L5679.99,1866.32L5684.41,1863.99L5688.36,1862.13L5691.35,1860.34L5693.24,1859.34L5693.34,1859.14L5694.17,1858.64L5694.63,1858.64L5702.31,1853.76L5716.26,1850.27L5717.65,1849.58L5719.05,1848.88L5720.44,1848.18L5723.23,1846.79L5730.2,1841.9L5737.18,1837.42L5742.76,1834.23L5748.69,1831.27L5756.01,1830.05L5756.01,1829.82L5773.45,1827.26L5773.45,1826.98L5782.51,1825.17L5790.18,1825.17L5799.95,1824.47L5807.62,1822.38L5812.5,1819.59L5820.18,1816.8L5832.03,1816.1L5834.82,1815.4L5846.68,1815.4L5848.77,1809.82L5851.87,1807.96L5857.84,1806.34L5862.72,1806.34L5865.51,1807.03L5872.48,1808.43L5878.76,1804.94L5889.92,1803.55L5895.03,1802.85L5895.5,1802.85L5896.17,1802.69L5905.26,1801.45L5910.15,1800.06L5910.84,1797.27L5906.66,1795.87L5890.62,1795.87L5871.09,1795.18L5863.42,1796.57L5856.44,1796.57L5851.56,1795.87L5851.14,1794.62L5852.26,1792.39L5852.36,1791.79L5852.95,1790.99L5852.7,1789.72L5852.95,1788.2L5852.26,1787.5L5851.31,1785.92L5850.17,1781.92L5851.56,1778.44L5859.23,1772.86L5859.23,1770.76L5855.05,1770.76L5846.68,1772.86L5843.19,1774.95L5837.61,1774.95L5837.61,1771.46L5839.7,1769.37L5844.65,1766.71L5848.07,1765.19L5847.95,1764.93L5848.77,1764.49L5849.47,1761.7L5846.68,1758.91L5843.19,1758.21L5840.4,1759.61L5835.52,1759.61L5826.45,1758.21L5823.66,1756.12L5822.27,1752.63L5824.36,1749.14L5832.73,1744.26L5837.61,1742.17L5841.1,1740.08L5843.19,1735.89L5842.49,1734.5L5838.31,1733.1L5838.31,1728.92L5834.82,1723.34L5829.94,1720.55L5827.15,1717.76L5827.85,1714.97L5831.33,1713.58L5833.43,1710.78L5834.12,1708L5831.33,1708L5827.15,1707.3L5826.49,1704.02L5829.94,1701.72L5840.64,1698.46L5843.89,1697.53L5843.92,1697.46L5845.98,1696.84L5852.95,1692.65L5858.53,1692.65L5859.93,1693.35L5864.11,1693.35L5868.3,1689.16L5875.97,1686.37L5879.4,1685.09L5880.16,1684.98L5879.96,1684.88L5881.55,1684.28L5883.64,1682.19L5883.75,1681.64L5885.04,1680.1L5888.53,1678.01L5896.9,1676.61L5898.99,1675.91L5899.45,1675.45L5904.57,1673.12L5906.66,1671.03L5896.9,1670.33L5892.71,1667.54L5869.69,1666.15L5869,1663.36L5870.39,1661.27L5877.36,1657.08L5887.13,1654.29L5890.62,1652.2L5896.2,1647.32L5898.19,1644.53L5898.29,1644.53L5898.81,1643.65L5899.68,1642.43L5899.77,1642.07L5900.38,1641.04L5900.07,1640.72L5900.17,1640.27L5900.38,1640.34L5901.08,1636.16L5903.17,1631.97L5902.48,1630.93L5902.48,1630.58L5901.08,1627.79L5900.15,1625L5898.99,1618.02L5897.59,1617.33L5888.53,1617.33L5884.34,1615.23L5882.94,1612.44L5882.39,1612.31L5880.16,1608.96L5876.49,1607.39L5874.92,1605.82L5874.58,1604.77L5879.46,1600.59L5879.5,1600.47L5880.16,1599.89L5880.16,1598.5L5880.85,1596.4L5882.25,1595.71L5890.62,1593.61L5906.66,1590.82L5915.03,1588.03L5917.82,1581.34L5920.29,1577.38L5923.4,1573.39L5926.19,1569.9L5927.58,1567.81L5929.67,1565.02L5930.73,1563.77L5931.07,1563.62L5937.35,1555.95L5945.02,1547.58L5947.81,1543.4L5947.11,1540.61L5945.02,1539.21L5925.94,1537.71L5916.94,1536.65L5913.28,1535.55L5910.38,1534.1L5909.13,1533.1L5907.91,1531.06L5907.62,1528.81L5908.05,1526.66L5911.54,1523.87L5918.52,1523.87L5922.7,1525.26L5923.24,1525.05L5924.09,1525.26L5924.25,1524.64L5924.79,1524.43L5924.79,1524.57L5925.39,1524.27L5925.49,1524.57L5925.59,1524.17L5926.19,1523.87L5925.93,1522.82L5926.19,1521.78L5924.79,1520.38L5920.61,1518.64L5918.52,1517.59L5917.65,1517.41L5916.42,1516.89L5915.26,1516.89L5908.75,1515.5L5897.59,1512.71L5882.94,1507.83L5865.51,1503.64L5860.63,1501.55L5851.56,1501.55L5846.68,1502.94L5834.82,1502.25L5832.03,1500.85L5829.94,1496.67L5829.94,1491.09L5830.64,1489.69L5832.73,1489L5834.3,1488.21L5834.82,1488.3L5838.31,1486.21L5839.01,1479.93L5844.59,1477.14L5852.95,1473.65L5859.23,1472.95L5860.11,1474.26L5861.32,1478.54L5863.42,1481.32L5868.3,1482.72L5869,1491.79L5871.78,1492.48L5874.58,1489L5873.18,1485.51L5873.18,1476.44L5871.09,1472.95L5862.72,1470.72L5862.52,1470.66L5861.32,1469.47L5857.84,1468.07L5858.53,1465.28L5860.63,1463.19L5866.9,1461.1L5873.18,1461.1L5875.67,1459.11L5875.97,1459.01L5879.11,1456.39L5879.46,1456.22L5885.04,1452.73L5884.97,1452.71L5886.13,1452.03L5886.43,1452.03L5888.53,1450.64L5893.41,1446.45L5899.68,1444.36L5902.48,1440.17L5905.26,1435.99L5905.69,1434.81L5906.66,1433.2L5906.86,1431.61L5908.05,1428.32L5910.15,1417.16L5911.71,1409.84L5914.33,1402.51L5917.82,1393.45L5928.28,1373.22L5933.16,1366.25L5936.65,1359.27L5940.14,1353.69L5940.18,1353.48ZM5853.65,1687.77L5848.35,1689.44L5846.68,1689.86L5844.38,1690.7L5842.38,1691.33L5841.8,1691.26L5840.4,1691.95L5834.3,1693.17L5833.44,1693.27L5834.09,1690.04L5839.7,1685.68L5848.07,1683.59L5852.58,1684.23L5852.95,1684.98L5854.35,1684.98L5855.05,1687.77L5853.65,1687.77Z" style="fill:white;"/>
        </g>
    </g>
</svg>
