<svg width="800" height="80" viewBox="0 0 800 80" fill="none" xmlns="http://www.w3.org/2000/svg">
<path fill-rule="evenodd" clip-rule="evenodd" d="M236.933 48.0166C238.943 48.116 240.746 48.2051 242.548 48.2051H261.911C268.315 48.2051 273.726 48.4968 278.88 48.7747C288.489 49.2928 297.206 49.7628 309.809 48.2051C319.801 46.9702 327.493 46.9096 334 46.8584C340.102 46.8104 345.16 46.7705 350.092 45.7778C351.554 45.4837 353.131 44.931 355.102 44.2402C359.974 42.5328 367.254 39.9815 381.147 38.4048C400.83 36.1709 422.869 34.188 437.197 34.188L486.922 40C501.167 38.8055 530.715 40 530.715 40L556.129 31.2704L592.481 26.5012C592.481 26.5012 615 35.906 640.5 38.4048C645.255 38.4048 659.303 33.768 672.5 34.188C684.281 34.563 695.283 40 700 40C707.353 39.4414 734.5 48.7747 747 45.7778C776.126 52.6138 800 63 800 63V0H0L0 24.6557C0 24.6557 12.2862 32.4756 19.5 38.4048C25.06 42.9747 45.1493 39.4204 51 38.4048C56.2546 37.4926 70.6457 50.8668 76 49.9848C90.6915 47.6655 103.347 57.732 111.5 57.5945C119.653 57.4571 144.5 53 144.5 53C151.288 52.0136 164.495 53.16 173 53C180.891 52.8516 186.366 55.9907 192.084 55.1973C201.29 53.9202 206.756 51.6035 210.575 49.9848C212.831 49.0285 214.513 48.3158 216.051 48.2051C226.113 47.4818 232.121 47.7787 236.933 48.0166Z" fill="black"/>
</svg>
