<svg width="800" height="80" viewBox="0 0 800 80" fill="none" xmlns="http://www.w3.org/2000/svg">
<g clip-path="url(#clip0_2404_4936)">
<path fill-rule="evenodd" clip-rule="evenodd" d="M234.5 45.7778C236.511 45.8772 245.698 46.8584 247.5 46.8584L258 53C264.405 53 275.846 46.5805 281 46.8584C290.609 47.3765 289.897 54.5576 302.5 53C312.492 51.7651 324.994 32.0512 331.5 32C337.602 31.952 336.068 32.9928 341 32C347.908 26.7222 358.686 30.465 370 26.5C374.872 24.7926 384.607 33.5767 398.5 32C401 32 404.5 40.5 404.5 40.5L480.5 48.2051C494.745 47.0106 530 46.8584 530 46.8584L561.5 44.2402H594.5C594.5 44.2402 613.706 31.6123 636 44.2402C643 48.2051 638.803 57.1745 652 57.5945C663.781 57.9695 683.783 66 688.5 66C695.853 65.4414 730.5 73 730.5 73C737.582 74.6623 748.83 72.1227 756.5 73C780.374 75.7307 800 79.5 800 79.5V0H0L26 13.5C58.5 30.5 58.5 44.2402 76 49.9848C90.6915 47.6655 103.347 57.732 111.5 57.5945C119.653 57.4571 144.5 53 144.5 53C151.288 52.0136 164.495 53.16 173 53C180.891 52.8516 186.282 41.2934 192 40.5C201.206 39.223 206.756 51.6035 210.575 49.9848C212.831 49.0285 214.513 48.3158 216.051 48.2051C226.113 47.4818 229.688 45.5399 234.5 45.7778Z" fill="black"/>
</g>
<defs>
<clipPath id="clip0_2404_4936">
<rect width="800" height="80" fill="white"/>
</clipPath>
</defs>
</svg>
