<svg width="46" height="46" viewBox="0 0 46 46" fill="none" xmlns="http://www.w3.org/2000/svg">
<path d="M43.4268 13.7813L43.4267 13.7811C42.896 12.3973 41.1799 9.39427 38.5526 6.63049C35.925 3.86648 32.4496 1.40837 28.413 0.983981L28.4128 0.983961C20.0085 0.0970299 14.0782 0.481313 9.73771 3.79349L43.4268 13.7813ZM43.4268 13.7813C43.9547 15.1561 44.275 17.6414 44.4596 19.8435C44.5508 20.9321 44.6076 21.9313 44.6414 22.6586C44.6584 23.022 44.6696 23.3172 44.6766 23.5212C44.6801 23.6232 44.6825 23.7024 44.684 23.7558L44.6857 23.8165L44.6861 23.8288L43.4268 13.7813ZM0.74686 16.3337L0.746847 16.3339C0.489153 19.8272 0.775649 21.9352 1.11155 23.1789C1.27903 23.799 1.45981 24.208 1.59504 24.4701C1.65775 24.5917 1.71166 24.6837 1.75666 24.7605L1.76862 24.7809C1.7903 24.818 1.81692 24.8637 1.83813 24.9056L1.83955 24.9084C1.85217 24.9333 1.89182 25.0112 1.90745 25.1108C1.90937 25.1179 1.91241 25.1287 1.91693 25.1437C1.92938 25.1852 1.94851 25.2446 1.97444 25.3217C2.026 25.4752 2.09986 25.6852 2.18965 25.9346C2.36896 26.4327 2.6085 27.0784 2.85246 27.722C3.09649 28.3658 3.3439 29.0049 3.539 29.4901C3.63679 29.7333 3.72001 29.9343 3.78243 30.0768C3.81394 30.1488 3.83785 30.2006 3.85428 30.2335C3.85523 30.2355 3.85613 30.2372 3.85696 30.2389C3.86342 30.2473 3.86728 30.2527 3.86803 30.2538C3.875 30.2633 3.88178 30.273 3.88805 30.2822C3.89188 30.2879 3.89553 30.2933 3.89891 30.2984C3.91719 30.3259 3.93931 30.3608 3.96355 30.3995C3.99608 30.4515 4.03743 30.5185 4.086 30.5972C4.10999 30.636 4.13573 30.6778 4.16306 30.7219C4.3301 30.992 4.56643 31.3711 4.86434 31.828C5.46056 32.7423 6.30223 33.9659 7.3233 35.2417C9.38486 37.8175 12.1044 40.511 14.9512 41.4009L0.74686 16.3337ZM0.74686 16.3337C0.997906 12.9112 2.1244 10.6491 3.72286 8.81772M0.74686 16.3337L3.72286 8.81772M3.72286 8.81772C5.02919 7.32103 6.64393 6.11389 8.41499 4.78989M3.72286 8.81772L8.41499 4.78989M8.41499 4.78989C8.84726 4.46673 9.28886 4.13661 9.73755 3.79362L8.41499 4.78989ZM1.91232 25.1521C1.91228 25.1516 1.91224 25.151 1.9122 25.1505C1.91225 25.1512 1.91231 25.1519 1.91236 25.1526L1.91232 25.1521Z" stroke="#F4EED9"/>
<path d="M17.2061 17.2059L27.7943 27.7941" stroke="#F4EED9" stroke-width="2"/>
<path d="M27.7941 17.2059L17.2058 27.7941" stroke="#F4EED9" stroke-width="2"/>
</svg>
