<svg width="15" height="15" viewBox="0 0 15 15" fill="none" xmlns="http://www.w3.org/2000/svg">
<path fill-rule="evenodd" clip-rule="evenodd" d="M0.563757 2.88054L6.25883 2.75662L11.9286 2.60767L12.4669 8.8991L11.9539 14.6032L5.2073 14.5782L0 15L0.563757 2.88054Z" fill="black"/>
<path fill-rule="evenodd" clip-rule="evenodd" d="M2.39439 0.288977L8.40772 0.0790838L14.43 0L15 6.66271L14.4567 12.7034L7.31197 12.6769L1.79736 13.1236L2.39439 0.288977Z" fill="white"/>
<path fill-rule="evenodd" clip-rule="evenodd" d="M2.39439 0.288977L8.40772 0.0790838L14.43 0L15 6.66271L14.4567 12.7034L7.31197 12.6769L1.79736 13.1236L2.39439 0.288977ZM3.34746 1.25209L3.08929 6.81147L2.84874 12.0293L7.26739 11.6792L13.548 11.6967L14.0024 6.66271L13.5123 1.01569L8.43447 1.0858L3.34746 1.25209Z" fill="black"/>
</svg>
