<svg width="7" height="8" viewBox="0 0 7 8" fill="none" xmlns="http://www.w3.org/2000/svg">
<path d="M2.24106 1.18931L2.241 1.18916L2.24062 1.18933L2.23609 1.19142L2.21546 1.2011C2.19683 1.20993 2.169 1.22335 2.13423 1.24073C2.06438 1.27567 1.96824 1.32581 1.86351 1.38631C1.63857 1.51624 1.43149 1.66166 1.32873 1.78123L1.32861 1.78137C1.21264 1.91621 0.94524 2.33085 0.769834 2.84798C0.593051 3.36917 0.542848 3.89582 0.723841 4.3145L0.723925 4.3147C1.22449 5.47396 1.6627 6.06317 2.27442 6.29831C2.30459 6.30987 2.33394 6.32114 2.36254 6.33213C2.74711 6.47986 2.99523 6.57517 3.25832 6.60307C3.51108 6.62988 3.80723 6.5941 4.25596 6.37846L4.25614 6.37837C4.75592 6.13844 5.04671 5.96664 5.20993 5.85873C5.29091 5.80519 5.34045 5.76741 5.36849 5.74484C5.38253 5.73355 5.39266 5.72488 5.40125 5.71746L5.41561 5.7051L5.41791 5.70266C5.43275 5.68674 5.45451 5.66279 5.48203 5.63204C5.53657 5.57109 5.60764 5.49018 5.67861 5.40828C5.74971 5.32623 5.81889 5.24529 5.86995 5.18404C5.88312 5.16825 5.89448 5.15448 5.904 5.14282L5.91014 5.12696C5.92771 5.08127 5.95217 5.01672 5.98077 4.93725C6.03817 4.77777 6.11168 4.55986 6.1791 4.31674C6.32134 3.80378 6.40784 3.27558 6.34015 2.93528C6.29638 2.71647 6.27104 2.53909 6.25146 2.40196C6.24873 2.38287 6.24611 2.36456 6.24358 2.34702C6.22139 2.19381 6.20797 2.12615 6.19047 2.077C6.17279 2.02734 6.14343 1.94819 5.78043 1.69233L2.24106 1.18931ZM2.24106 1.18931L2.24554 1.18714M2.24106 1.18931L2.24554 1.18714M2.24554 1.18714C2.24553 1.18716 2.24552 1.18717 2.24552 1.18718C2.24568 1.18759 2.26961 1.17926 2.33145 1.16764C2.40214 1.15436 2.49528 1.14159 2.60767 1.12993C2.83176 1.10669 3.10584 1.09052 3.37746 1.07994C3.6478 1.06942 3.90911 1.06468 4.10515 1.06358C4.20335 1.06303 4.28337 1.0634 4.33889 1.06433C4.35156 1.06454 4.36237 1.06477 4.37141 1.06501C4.59113 1.12213 5.19877 1.28269 5.7803 1.69224L2.24554 1.18714ZM5.47148 5.66238C5.47087 5.66279 5.47026 5.6632 5.46965 5.66361L5.47189 5.66211L5.47148 5.66238ZM4.29847 1.04528C4.30605 1.0477 4.31693 1.05072 4.33086 1.05442C4.32097 1.05199 4.31001 1.04897 4.29847 1.04528Z" fill="white" stroke="black"/>
</svg>
