<svg width="40" height="40" viewBox="0 0 40 40" fill="none" xmlns="http://www.w3.org/2000/svg">
<mask id="path-1-inside-1_1937_4988" fill="white">
<path d="M8.22284 36.7747C8.22284 36.7747 12.1015 39.4883 14.9642 39.8964C17.8296 40.306 28.1589 39.7596 32.9686 33.4335C37.781 27.109 40.478 22.0657 39.9299 16.9237C39.3775 11.7827 39.241 8.33013 33.8527 4.75588C28.4634 1.17759 26.6263 0.851296 26.4372 0.764438C26.2454 0.676092 21.3524 -0.055112 21.1727 0.00331931C20.9929 0.0617506 10.8232 1.86843 6.39542 5.82686C1.96882 9.78934 1.01378 9.19248 0.242247 14.6961C-0.528137 20.2038 0.780681 24.841 0.83181 25.1494C0.882939 25.4579 6.34069 35.5348 8.22284 36.7747Z"/>
</mask>
<path d="M8.22284 36.7747C8.22284 36.7747 12.1015 39.4883 14.9642 39.8964C17.8296 40.306 28.1589 39.7596 32.9686 33.4335C37.781 27.109 40.478 22.0657 39.9299 16.9237C39.3775 11.7827 39.241 8.33013 33.8527 4.75588C28.4634 1.17759 26.6263 0.851296 26.4372 0.764438C26.2454 0.676092 21.3524 -0.055112 21.1727 0.00331931C20.9929 0.0617506 10.8232 1.86843 6.39542 5.82686C1.96882 9.78934 1.01378 9.19248 0.242247 14.6961C-0.528137 20.2038 0.780681 24.841 0.83181 25.1494C0.882939 25.4579 6.34069 35.5348 8.22284 36.7747Z" stroke="#F4EED9" stroke-width="2" mask="url(#path-1-inside-1_1937_4988)"/>
</svg>
