<svg width="1600" height="80" viewBox="0 0 1600 80" fill="none" xmlns="http://www.w3.org/2000/svg">
<g clip-path="url(#clip0_2371_4753)">
<path fill-rule="evenodd" clip-rule="evenodd" d="M472.807 47.9519C477.383 48.0845 481.548 48.2051 485.096 48.2051L524.555 53.0051C551.132 53.0051 568.767 51.7421 591.19 50.1363C599.721 49.5253 608.945 48.8647 619.618 48.2051C639.601 46.9702 654.987 46.9096 667.999 46.8584C680.203 46.8104 690.32 46.7705 700.185 45.7778C703.107 45.4837 706.261 44.931 710.204 44.2402C719.948 42.5328 734.508 39.9815 762.293 38.4048C801.659 36.1709 845.738 34.188 874.395 34.188L973.844 40C1002.33 38.8055 1061.43 40 1061.43 40L1112.26 31.2704L1148.36 30.7603L1158.32 28.2489L1184.96 26.5012C1184.96 26.5012 1188.62 26.8779 1240.1 22.774C1243.43 22.5083 1247.32 21.1905 1251.43 19.7939C1256.25 18.1612 1261.38 16.4208 1266.32 16.1279C1272.67 15.7511 1279.52 15.3853 1286.89 15.0352C1291.26 14.8282 1298.77 15.9702 1306.06 17.0785C1312.84 18.1084 1319.42 19.1093 1323.11 18.9716C1332.27 18.6297 1340.54 16.7134 1348.26 14.9242C1354.85 13.3969 1361.04 11.9623 1367.05 11.6786C1381.38 11.0021 1393.08 12.4437 1403.99 13.7867C1411.61 14.7253 1418.83 15.6157 1426.3 15.7012C1435.78 15.8098 1445.77 14.3615 1456.08 12.8658C1463.74 11.7535 1471.59 10.615 1479.55 10.0711C1481.96 9.94735 1484.31 9.82496 1486.62 9.70393C1494 9.31653 1502.4 10.0891 1510.23 10.8096C1517.22 11.4523 1523.75 12.0536 1528.72 11.7532C1532.42 11.5291 1537.22 9.94516 1541.7 8.46323C1545.51 7.20473 1549.1 6.0198 1551.6 5.80376C1589.58 2.53257 1592.75 1.7582 1597.82 0.518737C1598.49 0.356068 1599.19 0.185387 1600 0H0V80C26.9922 78.451 53.4219 76.157 80.3054 73.8236C90.8146 72.9114 101.393 71.9932 112.102 71.1111C141.485 68.7918 205.86 67.4879 222.166 67.3504C238.471 67.213 279.521 60.214 279.521 60.214C293.081 59.2286 308.052 59.1749 322.638 59.1226C336.199 59.0739 349.426 59.0264 360.874 58.2325C379.053 56.9716 398.914 53.5279 413.346 51.0255C422.167 49.496 428.96 48.3182 432.102 48.2051C443.744 47.7867 450.099 47.5665 457.417 47.6219C462.836 47.663 468.044 47.8139 472.807 47.9519Z" fill="black"/>
</g>
<defs>
<clipPath id="clip0_2371_4753">
<rect width="1600" height="80" fill="white"/>
</clipPath>
</defs>
</svg>
