<svg width="420" height="80" viewBox="0 0 420 80" fill="none" xmlns="http://www.w3.org/2000/svg">
<g clip-path="url(#clip0_2371_4755)">
<path fill-rule="evenodd" clip-rule="evenodd" d="M124.39 48.0166C125.445 48.116 126.391 48.2051 127.338 48.2051H137.503C140.866 48.2051 143.706 48.4968 146.412 48.7747C151.457 49.2928 156.033 49.7628 162.65 48.2051C165.534 47.5261 167.6 47.0672 169.202 46.7114C173.246 45.8133 174.333 45.5718 178.166 44.1026C180.829 43.0817 189.857 40.6195 200.102 38.4048C210.436 36.1709 222.006 34.188 229.529 34.188H252.535C288.917 28.3761 309.685 31.0612 309.685 31.0612C309.685 31.0612 324.764 23.2479 349.376 18.8034C359.037 17.0588 363.504 16.3677 366.24 15.9445C370.474 15.2896 370.562 15.2759 379.338 12.9915C405.875 7.79487 417.504 2.16547 420 0H0V80C7.08546 78.451 14.0232 76.157 21.0802 73.8236C23.8388 72.9114 26.6157 71.9932 29.4268 71.1111C37.1398 68.7918 54.0382 67.4879 58.3185 67.3504C62.5987 67.213 77.0446 57.5945 77.0446 57.5945C83.9144 55.693 91.1384 53.719 97.3758 52.0711C105.064 50.0397 111.252 48.5033 113.427 48.2051C118.71 47.4818 121.863 47.7787 124.39 48.0166Z" fill="black"/>
</g>
<defs>
<clipPath id="clip0_2371_4755">
<rect width="420" height="80" fill="white"/>
</clipPath>
</defs>
</svg>
