<svg width="800" height="80" viewBox="0 0 800 80" fill="none" xmlns="http://www.w3.org/2000/svg">
<g clip-path="url(#clip0_2371_4757)">
<path fill-rule="evenodd" clip-rule="evenodd" d="M236.933 48.0166C238.943 48.116 240.746 48.2051 242.548 48.2051H261.911C268.315 48.2051 273.726 48.4968 278.88 48.7747C288.489 49.2928 297.206 49.7628 309.809 48.2051C319.801 46.9702 327.493 46.9096 334 46.8584C340.102 46.8104 345.16 46.7705 350.092 45.7778C351.554 45.4837 353.131 44.931 355.102 44.2402C359.974 42.5328 367.254 39.9815 381.147 38.4048C400.83 36.1709 422.869 34.188 437.197 34.188L486.922 40C501.167 38.8055 530.715 40 530.715 40L556.129 31.2704L592.481 26.5012C592.481 26.5012 600.711 29.1002 647.59 24.6557C676.656 21.9001 687.917 19.5232 698.836 17.2184C705.528 15.8059 712.092 14.4205 722.548 12.9915C773.096 7.79487 795.245 2.16547 800 0H0V80C13.4961 78.451 26.7109 76.157 40.1527 73.8236C45.4073 72.9114 50.6966 71.9932 56.051 71.1111C70.7424 68.7918 102.93 67.4879 111.083 67.3504C119.236 67.213 146.752 57.5945 146.752 57.5945C153.539 56.6082 162.286 56.4436 170.791 56.2837C178.682 56.1352 186.366 55.9907 192.084 55.1973C201.29 53.9202 206.756 51.6035 210.575 49.9848C212.831 49.0285 214.513 48.3158 216.051 48.2051C226.113 47.4818 232.121 47.7787 236.933 48.0166Z" fill="black"/>
</g>
<defs>
<clipPath id="clip0_2371_4757">
<rect width="800" height="80" fill="white"/>
</clipPath>
</defs>
</svg>
