<svg width="393" height="117" viewBox="0 0 393 117" fill="none" xmlns="http://www.w3.org/2000/svg">
<path d="M119 70.5C116 70.5 113 69 106 70.5C103.968 70.9355 98.1847 73.1831 91 76.1541C85.1711 78.5644 78.4196 81.4507 72 84.2316C72 84.2316 58.5 98.2991 54.5 98.5C50.5 98.7009 34.7083 100.608 27.5 104C18.1534 108.59 9.21049 113.849 0 117H392.5V0C390.167 3.16667 379.3 11.4 354.5 19C341 24.5 349.5 21 326.5 27.5C303.5 34 320.5 29 279 39.5C253.5 45 270 41.5 236 50H214.5C207.47 50 196.657 52.9 187 56.1673C177.426 59.4064 168.989 63.0065 166.5 64.5C161.5 67.5 161.5 67 152 70.5C142.5 74 137.5 70.5 128.5 70.5H119Z" fill="#3B707D"/>
</svg>
