<?xml version="1.0" encoding="UTF-8" standalone="no"?>
<!DOCTYPE svg PUBLIC "-//W3C//DTD SVG 1.1//EN" "http://www.w3.org/Graphics/SVG/1.1/DTD/svg11.dtd">
<svg width="100%" height="100%" viewBox="0 0 50 50" version="1.1" xmlns="http://www.w3.org/2000/svg" xmlns:xlink="http://www.w3.org/1999/xlink" xml:space="preserve" xmlns:serif="http://www.serif.com/" style="fill-rule:evenodd;clip-rule:evenodd;stroke-linejoin:round;stroke-miterlimit:2;">
    <g transform="matrix(1,0,0,1,-4555,-3455)">
        <g transform="matrix(0.302595,0,0,0.292541,4118.93,2653.51)">
            <path d="M1456.07,2765.07L1449.35,2781.21L1445.28,2795.76L1441.59,2814.21L1445.37,2824.21L1445.98,2837.41L1452.3,2855.36L1453.91,2872.88L1461.12,2883.57L1474.85,2895.87C1474.85,2895.87 1470.46,2897.66 1484.37,2901.95C1487.54,2902.92 1494.1,2905.5 1506.62,2906.17C1534.39,2907.64 1522.53,2909.77 1537.67,2906.73C1552.81,2903.68 1537.29,2908.26 1556.34,2903.19C1575.4,2898.13 1564.96,2901.98 1573.54,2895.69C1582.12,2889.39 1575.66,2899.81 1585.91,2886.64C1596.15,2873.46 1593.45,2882.17 1597.02,2871.47C1600.58,2860.78 1598.7,2866.91 1600.82,2855.14C1601.28,2852.63 1602.73,2848.9 1602.89,2840.91C1603.2,2826.2 1605.53,2835.71 1604.14,2822.86C1602.75,2810.02 1602.34,2808.03 1602.34,2808.03L1601.4,2797.37L1596.39,2786.08L1589.3,2764.2C1589.3,2764.2 1586.64,2758.25 1577.05,2753.27C1567.47,2748.3 1565.05,2745.79 1565.05,2745.79C1565.05,2745.79 1565.22,2745.85 1548.94,2743.39C1532.66,2740.95 1528.33,2739.95 1528.33,2739.95L1508.27,2739.28L1486.08,2742.36L1478.09,2746.43L1468.61,2755.22L1456.07,2765.07Z" style="fill:rgb(59,112,125);"/>
        </g>
        <g id="Menu-illustration" serif:id="Menu illustration">
        </g>
        <g id="Logotype">
        </g>
    </g>
</svg>
