<svg width="48" height="16" viewBox="0 0 48 16" fill="none" xmlns="http://www.w3.org/2000/svg">
<path d="M45.5 7.34L33.5 7.33333V8.66667H45.5V7.34ZM33.5 10.6667H41.5V12H33.5V10.6667ZM45.5 4H33.5V5.34L45.5 5.33333V4Z" fill="black"/>
<path d="M13.1667 3.33333V12.6667H3.83333V3.33333H13.1667ZM13.1667 2H3.83333C3.1 2 2.5 2.6 2.5 3.33333V12.6667C2.5 13.4 3.1 14 3.83333 14H13.1667C13.9 14 14.5 13.4 14.5 12.6667V3.33333C14.5 2.6 13.9 2 13.1667 2ZM9.92667 7.90667L7.92667 10.4867L6.5 8.76L4.5 11.3333H12.5L9.92667 7.90667Z" fill="black"/>
<path d="M26.4167 8.41659H23.9167V10.9166H23.0834V8.41659H20.5834V7.58325H23.0834V5.08325H23.9167V7.58325H26.4167V8.41659Z" fill="black"/>
</svg>
