<?xml version="1.0" encoding="UTF-8" standalone="no"?>
<!DOCTYPE svg PUBLIC "-//W3C//DTD SVG 1.1//EN" "http://www.w3.org/Graphics/SVG/1.1/DTD/svg11.dtd">
<svg width="100%" height="100%" viewBox="0 0 1563 405" version="1.1" xmlns="http://www.w3.org/2000/svg" xmlns:xlink="http://www.w3.org/1999/xlink" xml:space="preserve" xmlns:serif="http://www.serif.com/" style="fill-rule:evenodd;clip-rule:evenodd;stroke-linejoin:round;stroke-miterlimit:2;">
    <g transform="matrix(1,0,0,1,-9196,-954)">
        <g transform="matrix(4.00632,0,0,4.00632,-1800.72,-6089.03)">
            <path d="M2744.87,1859.09L3134.87,1859.09L3134.87,1848.68C3134.87,1848.68 3083.77,1857.81 3064.46,1851.99C3045.14,1846.17 3016.75,1844.68 2981.93,1837.44C2947.12,1830.2 2957.1,1831.51 2953.31,1830.49C2945.23,1828.29 2927.82,1826.31 2922.13,1824.41C2915.28,1822.13 2920.54,1820.09 2914.91,1819.53C2906.85,1818.74 2896.7,1821.56 2896.7,1821.56L2878.83,1811.54L2863.67,1811.54L2844.41,1814.68L2815.75,1805.32L2796.91,1783.68L2780.84,1782.5L2753.99,1769.83L2744.87,1758.14L2744.87,1859.09Z" style="fill:white;"/>
        </g>
    </g>
</svg>
