<svg viewBox="0 0 797 410" xmlns="http://www.w3.org/2000/svg" fill-rule="evenodd" clip-rule="evenodd"
  stroke-linejoin="round" stroke-miterlimit="2">
  <path
    d="M418.032 389.15l-58.163 10.997-53.11 6.995.24-.3.121-.582-.2-1.864-.583-.115-2.11 3.099.071.046-4.58.529-.532-.13-1.898-1.841-.08-.744-1.196-.606-.994 1.258-2.883-.575-2.23-1.42-.09-.743-.653-.867-3.716-1.227-1.115.138-.622-.483.25-1.166 1.357.391 2.069-.069.663-.836-2.11-2.001-.371.046-.452.997-2.27-1.787.331-.422 1.286-.353-.663-.859-.954-.069-1.235-.974-.533.253-2.19-1.043-5.121-2.002-4.46-1.135-8.959-2.646-3.515-1.066-1.446-1.143-.663.836-1.195-.598.502-.629-.663-.866-2.15-.668-.903.3-1.406.935-.955-.069-2.681-.422-1.607-.928-.914.307-1.406-.767-3.546-1.442.703-.468 1.778.721 1.115-.138.864-.675-1.075-1.188-.864-1.028-1.526-.184-2.15-.675-2.39-1.204v-1.703l-1.235-.974-3.104-.744-2.39.49-2.853-1.909-1.687.03-2.4-1.21-2.02.444-1.034-.813-1.365-.399.703-.46.452-1.005-1.437-1.142-1.496.191-.653-.866.582-1.58-.25-.537-1.196-.606-1.938-.506-1.406.928-.543-1.442-.14-.03-.06-.131-.372.046-.994 1.258-.372 1.748-.13.583 1.235.974 2.19 1.043-.121.583-1.979-.882-1.115.146-.622 1.212-.623-.491-1.607-.928-.452-.698 1.075-.514 1.195-1.097-.08-.744-1.276-1.35-.954-.069 1.777-.981.995.445.331-.422-.412-.33-1.406-.767-2.691 1.288-2.11 1.396-.451 1.005 2.23 1.419-1.568 1.143-.622-.491-1.195-.606-1.738-.345-1.286.345-1.436-1.135-2.069.069-.823 1.05-.543-1.441-2.56-1.005-1.528-.184-2.139-.675.332-.414 1.767.72 1.818-.605 2.521.621 1.898.138.874-.675-1.988-.882.994-1.258.864 1.02.793-1.418.452.698 1.486-.184.121-.583-.864-1.028-1.275.353-3.345-1.281-1.074.514.532 1.442-1.366 1.311-1.235-.982-1.155-.23-1.196-.606-1.416.936-1.436-1.143-1.948-.506-1.808.606.863 1.02 2.521.629 1.607 1.534-1.034.284-2.019-1.258-3.264-.53-1.035.883-3.264-.53-1.195-.605 1.858-1.94.372-1.742-1.236-.981-2.892-.576-2.642-.046-1.858.238-.663.836 1.196.606-1.236.72.241.538.995.437.331-.414.412.322 2.109.299 1.195.606-.492.629-.834-.652-1.155-.23-2.681-.414-3.847-.652-1.607.774-1.697.023-1.075.514.703 1.235-.251 1.158-1.276-1.35.452-.997-.492-1.074-.863-1.02-1.075.514-.663-.866-2.019-1.25-2.973.368-3.555-1.435-3.465-.697-4.008-.438-3.384.046-1.035.89-.09.951 1.245.982 1.939.506 1.647 1.304.663.859-.663.836-.623-.483-1.316-.023-1.858.23-1.245-.974.703-.468 1.778.72 1.406-.927-1.406-.767-5.032-1.258-2.07.077-1.405-.775.05-1.327-2.23-1.411-.542.253-.984-.445.653-.836-2.1-.299-1.205 1.097-1.315 1.672-1.246-.974-.492-1.074-.884-.974 1.878-1.979.824.652.954.07 1.738-1.358.652.866.794.276 1.155-1.464 1.526.184.663-.844-.321-.499-.06-.26 1.295-1.243-.622-.483-1.115.138-1.738-.353-.492.63 1.025.82-.322.414-1.165-.23-1.446.56-1.768-.721-3.636-.483-1.697.023-1.356-.391-3.475-.698-3.425-.322-3.224-.162-1.366-.398-3.053-.368-4.62-.929-.994-.437.411-1.373-.622-.49-.653.836-.09.958-1.356-.399-1.537-.184-.864.675-.412-.322-6.9-1.02-6.146-1.112-1.698.023-5.373-.836-4.79-.713-3.385.046-1.447.56-.622-.483-.322.414.613.49.331-.421 1.527 1.886 1.075-.513.411.322 3.094.744-.864.675-3.505-1.066-.914.306-2.853-.207-1.074.514-.201 1.534.24.537.543-.26 1.487 1.518 1.235-.729-.904-1.396.492-.629 1.818 1.097-.12.583.612.483.623-1.212 1.718-.375 2.089.651-.02-.03.803.314.984.437-.944-.069-.331.422.653.86 1.245-.722.05-.13.814-.545 1.536.184 3.345 1.281.693-.468.412.322.873-.674.412.33 3.264.529.332-.422 1.195.606.914-.3 3.214.154 1.245-.721 1.607.936 2.893.575h3.013l1.938.506 2.19-.652 1.366.399.331-.422.663.86-2.48-.254-.493.629.613.49 1.366.392 3.093.744 1.487-.184 1.777.713 2.853.207 3.465.698 1.265.138.262.046 2.922.476.322.168-.603 2.8-.703-1.227-1.025-.821-1.365-.391-1.326-.023-1.939-.514-.14.1-.231-.046-.332.414-.703.468-1.486.184-1.858-1.465-2.15-.667-1.486.184-1.567-.56-2.842-.207-2.692-.414-1.858.237-2.892-.583.462-1.004-.623-.483-1.326-.024-1.607.767-1.195-.605-1.075.513 1.025.813 1.325.023-.331.422-1.235.721-1.778-.72-2.48-.254-1.116.146-1.737-.353-1.065-1.181-1.366 1.304-1.366-.4-1.094.607.02-.092-.703.468-1.567-.56-1.075.514.452.698 1.738.352.904-.306 1.607.928 1.245-.721 1.647 1.303.583.116.662.859-.462 1.004-2.6.322-.955 1.634-.743.092-1.195 1.097.863 1.027 2.853.208L76.89 359l.582.115 2.481.253 2.44.737c-2.47.168-4.99.39-7.562.667l-1.245-.982-.573-.115-.834 1.051.744.26c-1.597.185-3.204.384-4.821.599l-.171-.138-.311.207c-1.035.138-2.08.284-3.124.437l-.08-.007-.251-.537-1.196-.606-.863.675.823.652-.11.076a128.2 128.2 0 00-1.688.261l-.431-.054-1.537.368-.14.023-2.662-.414-1.115.138-5.293-.084-2.883-.583-1.074.514-1.326-.023-2.23-1.419-.823 1.05-3.807-.275-1.436-1.135-1.326-.023-1.245.72-.573-.114-.663-.86-1.064-1.188-1.085.514-1.195-.606-4.952-.506-2.731-.79.502-.63.412.323 1.898.138 1.818-.606.622-1.212.995.445.281.905.994-1.258.623-1.212-1.527-1.886-1.607-.928-.502.629 1.286 1.35-1.487.191-2.109 1.396-2.36-.836-2.511-.629-4.921-.138-3.596-.107-5.534-.63-6.237-.827V-.417h798.316s-24.226 16.934-39.854 27.526h-.421l-.12.368c-.413.276-.824.552-1.226.828l-.221-.115-.532.269v.352a705.662 705.662 0 01-4.138 2.8l-.573-.192-4.198 2.163-1.828 1.61-2.1 1.082.01.537.101-.016c-1.566.974-2.912 2.4-4.077 4.18l-.482-1.204-.784.008v1.066l.532.797-1.305.545-1.316.805-.251 1.074h-.532l-6.027 3.505-5.503 2.968-1.306 1.074-4.72 2.7-4.189 2.43-2.611 2.148-.783 1.342h-.794v.537l.794-.007v-.53l2.37.522.512-1.074h.532l2.883-1.357-.261 1.073-3.405 1.358-.522.798-2.36 1.618-.513 1.074.794 1.326.522.269.261-.537 2.11.253.511-1.334-1.576-.53-.01-.797 2.109-.284.26.537.794-.008-.27-1.334 1.104-1.366 2.029-.79-.03-.015.823-.253 1.045-.276-.784.545.01.529 1.045.26.522-1.334-.05-.138.301-.936 1.316-.805 3.415-1.09.25-.804h.533l.251-1.066.533-.008 2.872-1.618v-.53l1.316-.276.522-.805 2.621-1.887.513-1.334 1.265-.192c-.653 1.88-1.215 3.896-1.727 6.013l-1.336.867-.794.805-1.566.805-1.577-.253-.251 1.871-1.316.537-.482 1.158-.04-.084-.251.805-1.577.537-.523 1.074.794.26 1.567-.805.522-.805 1.838-.276.522-1.342 2.1-.008.532-.268.753.184c-.14.705-.271 1.419-.402 2.132l-.864.89.272 1.863-.523.537-.25 1.61.511.1c-.17 1.036-.502 2.033-.502 2.033l-.793-.53-.271-1.065-1.306.007-.783.806-.272.268-1.305.805-.533-1.595-2.892.552-.512 1.066.26.537 2.1-.544-.241 2.937 1.044.26.523-1.073 1.044-1.342.784-.268.01 1.066.26.268.272.26 1.577-.007s.492 2.125.27 3.52l-1.305.76-.522-.261-1.316.276-.25 1.066 1.044-.007-.251.805-1.316.813-1.045 1.334-2.36 1.35-.783.805s2.22 3.183.964 4.403c-.211.207-4.309 2.117-5.655 3.06a85.878 85.878 0 00-4.248 3.144l-.954-.23-.522.269v1.066h.13c-11.239 9.533-32.42 30.9-34.349 34.106-.964 1.58 11.49 59.784 11.49 59.784l.07 49.576-.05-.015-.673.483.11 1.695-.341 2.332.09.107-.03.26.723.837-.612.851.13.744.663.966.01 2.002-.21-.391-.724-.828-.602.859.04 1.319-.543 1.227-.431-.315-.462.645 1.225 1.51-.11 1.542.712.828 1.055-.544h.06v1.994l-1.787-.959-.754 1.066.04 1.327-.3 3.65v3.23l-.342 2.331-.08 3.812-.202 2.117-.21 3.068-.693 4.67.07 3.59-.332 1.38.181 2.063-.371 3.283.01 6.45-.241 4.027-.282 5.928-1.315 3.252-.201 2.117-.04 1.917-3.245 13.161-.572-.414-.462.644.653.468.331-.46-6.709 27.22-.11-.1 1.044-6.995-.562-1.051-.05-1.32.3-3.658.523-3.497.864-2.607-.542-1.995-.573-1.05.331-1.38.874.613.754-1.066.09-3.812-.653-.46-.392 1.012-.29-.529.22-3.068-.462-2.584.281-2.7-.26-1.48.481-1.596.342-2.331-.07-3.59.702-1.441.784 1.196.542-1.22.583-6.357.19-5.346.714-2.393.803.253.201 1.104.542 2.002.673-.49.181-1.166-.633-1.42.231-.797.221-3.068-.502-3.904-.793-1.204.18-1.165.211-3.076-.743-3.106.261-1.749-.11-1.687 1.004-1.871-.783-1.204-.271-1.473-.302-2.8.633-1.81.04-1.901-.331-1.841-1.065-1.726.322-1.388 1.396-2.876-1.246-.56-1.195.76-.693 1.441.783 1.204-.944.292-1.476-1.043-1.366 1.932-1.004-1.357 2.069-3.367-.241-2.431 1.295-2.301.492-1.887.513.023.823-.705.723.836 1.125-1.136-.934-.989.613-.851.432-2.922-1.025-.4-.974.914-.683.49-1.195.76-.974.92-.171 1.166-.543 1.227-.964-.038-.24.797 1.677.867-.523.276-.914 1.288-.02.951-.843 1.657-.282-.53-.08.04-.14-.192-.151.352-.151.077-.04.337-.201.46.04 1.136-.08.774.11.292.02.445.251.23.312.813-.633 1.81-.21 3.075 1.094.767.04 1.327-1.085-.775-.552 1.227.221 3.375-.432 2.922.422 1.258-.241.798-.221 3.075.09 2.638.673-.483.332-1.388.502.683-.13 2.485-.935 2.24-.592-.093-.04 1.902.572 1.05-1.155 2.08-.19 5.345-.212 3.068-.15 6.672-.342 5.553.06.69-.02.637.08.146.05.59-.21 3.068-.02 4.18.331 1.84.673-.483-.351-.897.371-3.283-.24-2.43.622-1.803 1.527 1.081.371-.061.974-.92 1.025.406-.301.43-.262 1.748-.28-.521-1.307-.928-.371.061-.974.913-.11 1.534-.131 2.492.562 1.043-.301.43.562 1.05.312-.429-.503-.675 1.065-1.503.17-1.166.543-1.227.442.307.22 2.209-.2 3.29-.623 5.039-.15 3.436-1.175 3.037-.874-.622-.583-.092-.17 1.166 1.868 1.979-.302.43-.432-.315-.612.859-.342 2.332-.22 3.075-.151 3.436-.693 1.442-.744.123-.843 1.649-1.175 3.037-1.979 2.784-.19 2.124-1.377 1.925-.713 2.393-1.175 3.037-.19-1.104 1.034-3.774-.492-.682-1.678 2.362-.713 2.393-1.245 2.661.13.737.784 1.204-.753 1.073.713.836.673-.49-.1 1.533-1.457 2.516.562 1.043-1.436 1.565-1.215 1.71-.352-.89.693-1.442-.653-.467-1.386-.346-.462.645.11 1.695-1.044.544-.391 1.013.984 2.308-.392 1.013 1.095.774-.311.43-.262 1.748-1.014 2.823.11 1.687 1.457.713-.301.43.713.828 1.325-.023-.602.859-1.025-.399-1.044.545-.201-1.105-.502-.682-1.366 1.932-.322 1.381.11 1.687-.913 1.289.502.675.824-.698.502.675-.322 1.058-8.456.115-1.326-1.25-1.175-.192-.914 1.289.11.191-159.271 5.3-43.318-4.847M47.905 352.458l.623.483 1.034-.882-.422-.33-1.235.73zm-8.396-62.767l-.452-.698-.874.675.823.652.503-.63zm120.915 66.142l.693 1.227 2.61-2.025-.833-.652-.371.046-.784 1.427-1.034-.82-.281.797zm-31.598-42.282l.251-1.166-1.858-1.465-.371.046-.502.629 1.285 1.35 1.195.606zm-98.93 36.261l-1.857.238-.703.468.864 1.02 1.285-.353 1.406-.928-.622-.49-.372.045zm99.523-17.08l.331-.414-.411-.33-.332.422.412.322zm52.247 8.897l-.412-.322-.331.422.411.322.332-.422zm-9.642 13.49l1.034-.881-.411-.33-1.075.514.452.698zm1.175-9.962l-.623-.491-.874.675.834.652.663-.836zm-15.156-5.837l-.452-.698-1.908-.138.462.698 1.898.138zm82.328 34l.612.49.583.115 2.19 1.043 1.154.23 2.06 1.634.953.07 1.155-1.473 2.15 2.377 1.446 1.135-.663.844-3.385-1.65-.542.254-1.898-.138-1.115.138-1.195 1.097.823 2.354.784-1.426 1.526 1.886 1.075-.513 2.31.467 1.527.184 2.852.208.452-1.005.663-.836 2.732.79 3.465.698 4.419.759 3.304.905 1.406.767-.703.468-.582-.115-1.527-.184-3.344-1.281-2.642-.046-2.56-.997-1.116.146-.873.674-.242 1.159.864 1.027 1.356.391 1.125-.138 3.294.905 2.732.79 1.527.184 2.35.836 2.973-.375 1.075 1.188 1.858-.237.793-1.42-.874-1.02-1.978-.881-1.678-.422-.783-.276.271-.353.412.33 2.601-.33 2.32.46 1.688-.023 1.577.56.903-.307.292-.79-1.075-1.188-1.366-.392-1.647.4-2.35-.844-1.115.145-2.029-1.258-1.195-.605-2.019-1.25-3.304-.906.452-1.004-1.035-.813-.572-.115-.703.46.492 1.074-1.366-.392-2.059-1.633-4.048-.813-1.245.728-2.973-1.326-.904.306-1.607-.935-1.406-.767-1.034.89-1.196-.606-.703.467-1.607-.928-1.536-.191-2.31-.46-.492.628zM18.256 346.751l-.663-.859-.582-.123-.663.844 1.035.813.873-.675zm60.985-14.488l.653.86.542-.254.623-1.212-.422-.33-1.396.936zm23.382-3.328l-.824-.652-1.205 1.097.994.444 1.035-.89zM45.816 302.49l.653-.843-.824-.652-.371.053-.292.79.834.652zm94.751 39.038l1.035-.89-.623-.483-.864.675.452.698zm-34.57-5.844l1.035-.882-.492-1.074-.372.046-.623 1.212.452.698zm64.792 18.46l-.824-.651-1.075.513 1.035.813.864-.674zm-90.614-51.079l.954-1.633-.291-.905-1.486.184-.252 1.166 1.075 1.188zM25.478 347.35l.502-.629-.251-.536-.904.306.653.86zm14.633-9.21l-.452-.699-.582-.115-.332.422-.411-.33-.704.468 1.366.399 1.115-.146zm203.182 41.23l.492-.628-.652-.86-.703.469.863 1.02zm-228.25-42.98l-.453-.697-1.074.513.663.86.863-.675zm86.405 5.914l2.31.46 2.149.675 1.075-.514.994.445.864-.675-.452-.698-4.62-.928-2.441.115-2.31-.46-.331.422 2.018 1.25.744-.092zm69.43-30.28l.292-.79-.833-.651-.864.674.663.86.743-.093zM34.518 352.443l1.165.23 3.425.322.251-1.158-1.286-1.35-2.27-.092-1.737-.353-.613 1.212 1.065 1.189zm247.936 29.919l-.502.629 1.607.935.331-.421-.652-.86-.784-.283zM32.78 324.526l-.452-.698-.873.675.411.33.914-.307zm25.06 8.551l-.413-.33-.863.675.612.491.663-.836zm80.378 2.516l-.08-.744-1.115.138.452.698.743-.092zm16.833 16.006l.663-.843-.653-.86-.663.837.653.866zM28.862 312.937l-.612-.49-.332.421.613.483.331-.414zm225.881 60.835l-.502.629.582.115-.08-.744zm-71.55-64.624l-.412-.322-.332.414.412.33.331-.422zM57.656 351.983l.12-.583-.37.046.25.537zm-1.677-15.278l-.13.583.542-.253-.412-.33zm3.355-7.217l.572.115-.24-.537-.332.422zm7.472-3.965l.834-1.05-.04-.37-1.035-.812-1.115.138-.864.675.493 1.074 1.727.345zm67.815 8.252l1.456-.56 1.235-.72-.663-.86-2.018.445-.874.675.08.744.784.276zm4.51-1.886l-.664.836.623.49.663-.836-.623-.49zm117.58 51.263l.743-.092-.452-.698-.743.092.452.698zM72.984 311.334l.703-.46-.623-.49-.492.628.412.322zm2.18 7.846l1.315.023.462-1.005-.492-1.066-1.326-.023-.622 1.212.662.86zm83.733-9.802l.743-.092.834-1.05-.874-1.02-1.487.184-.24 1.165 1.024.813zm159.733 78.053l1.155-1.465-.663-.859-.371.046-1.155 1.465.08.744.954.07zM21.35 350.894l-.663-.86-.372.047-1.155 1.465.653.866 1.537-1.518zm138.21-2.884l-1.035.882 1.195.606 1.246-.721-.452-.698-.954-.07zm-98.397 8.436l-1.035.89 1.075 1.181.612.491-.16-1.488-.492-1.074zm-16.03-32.718l1.276-.353-1.035-.813-.864.675.623.491zm5.494-8.252l.291-.79-.823-.652-.372.046-.08.959.984.437zm133.54 2.615l1.034-.89-.281-.905-.211-1.863-.663-.86-1.275.353-1.366 1.304.04.368 2.722 2.493zm-125.907 6.81l.783.277.653-.376.261.077.332-.422.412.322.381.084.402.2.08-.108.292.062.994-1.258-.251-.537-.573-.115-2.611.322-1.195-.598-2.019.445 2.059 1.626zm115.853 14.849l.743-.092.864-.675v-1.703l-1.235-.974-.914.307-1.035.882-.08.959 1.657 1.296zm-37.312 8.674l2.35.836 1.487-.192 2.36.836 1.527.192-.704.46-1.155-.23-2.852-.207-3.264-.53-2.39.492-1.417.928-1.436-1.135-.371.046-1.166 1.464.834.652 2.511.63 3.395-.054 5.986 1.326 3.224.162 1.777-2.685.452-1.005-1.446-1.135-.703.468-1.486-1.51-.864.674-1.276-1.35-1.697.023-1.938-.506-1.286.345-.452 1.005zm79.616 16.206l-.452-.698-.864.675.613.49.703-.467zm-94.099-65.744l-.834-.651-.492.628.452.698.874-.675zm-31.105 32.627l-.452-.698-.703.46.663.867.492-.63zm95.454 7.6l.704-.468-.161-1.488-.794 1.42.251.536zm-152.954-.92l.412.322 1.075-.506-.623-.491-.864.675zm145 21.183l-.663-.859-.331.422.994.437zm-33.435-22.978l-1.035-.813-.693.468.864 1.02.864-.675zm18.088 8.483l-1.034-.813-.663.843.824.652.873-.682zm-45.95-59.73l1.116-.139 1.486-1.886v-1.703l-1.024-.813-.372.046-1.737-.345-.754 3.49 1.286 1.35zm26.174 44.475l.211 1.864 1.447 1.135 2.641.046 2.15-1.028.994-1.258-.502-1.066-.372.046-3.917-1.396-1.657.4-.995 1.257zm-26.776 13.575l-.412-.33-.703.468.412.33.703-.468zm101.953 25.67l-.372.046.452.69-.08-.736zm-.281-4.31l-.412-.33-.332.422.412.322.332-.414zm-170.5-11.359l-1.196 1.09.452.697 1.316.023 1.245-.72-.863-1.02-.955-.07zm137.587 5.123l.863-.674-.823-.652-2.11-.307-.702.468.873 1.027 1.899.138zm-95.495-40.648l-.412-.322-.502.629.412.322.502-.63zm168.883 53.295l-.452-.697-1.034.89.452.697 1.034-.89zM76.057 329.074l-.823-.644-.533.253.653.859.703-.468zm218.76 40.587l1.034-.882-.09-.744-.904-1.396-1.155-.23-1.034.882.532 1.442 1.617.928zm-164.564-41.377l-.663-.86-.703.469.662.859.704-.468zm12.725-.844l1.687-.03 1.828-.606.452-.997-1.657-1.304-.573-.115-2.109-.3-1.366 1.304.09.744 1.648 1.304zm135.578 60.705l.824.652.954.069 1.155.23 1.195.606.462-1.005-1.858-1.465-1.858.238-.874.675zm-234.91-34.966l.955.07.663-.837-.874-1.028-1.818.606-1.025.89.653.859 1.447-.56zm9.673-1.22l-.703.469-1.155-.23-.874.674.26.2-.22.176.412.322.442-.015 1.918.851.331-.422.201-1.533-.612-.491zm-5.725-21.183l.291-.79-1.075.514.784.276zm18.821 20.286l.412.33.291-.79-.703.46zM39.72 322.516l-.543.261.623.483-.08-.744zm119.478 17.042l.784.276-.452-.698-.332.422zm79.023 33.086l-.412-.322-.371.046.452.698.331-.422zm5.374-2.561l-.412-.33-.372.046.452.698.332-.414zm-79.666-13.184l.622.49.322-.421-.613-.49-.331.42zm-22.99-20.516l-.08-.744-.703.46.783.284zm-87.59-11.62l.622-1.211-.833-.652-2.1-.3-.833 1.051.663.86 2.48.253zm126.519 33.148l.743-.1 1.366-1.303-.663-.86-2.27-.091-.452 1.004 1.276 1.35zm99.14-1.74l-.542.26.623.483-.08-.744zM78.076 332.033l.422.322.331-.414-.422-.33-.331.422zM69.74 293.81l-.412-.33-.331.422.411.322.332-.414zm-24.507 44.63l-1.034.889.623.483 1.687-.023 1.085-.514-1.035-.813-1.326-.023zm41.621-22.618l.743-.092.824-1.05-.864-1.029-.904.307-.462.997.663.867zm-27.007 32.105l-.372.046-1.074.513-.995-.437-.492.63 1.035.812 2.56-.698-.662-.866zm168.01 19.603l.662-.836-.823-.652-1.527-.184-.703.468.663.859 1.727.345zm49.052 14.212l3.264.536.874-.682-3.967-1.764-2.601-1.373 1.536-1.51-.29-.914-1.859.238-1.497 1.887 2.562 2.7 1.978.882zM59.757 352.28l-.493.63.824.652.874-.675-.422-.33-.783-.276zm225.288 38.256l1.235-.72-.824-.652-.863.675.452.697zM37.179 338.891l-.824-.652-.703.468.663.859.864-.675zm33.696 13.314l-.663-.867-.874.683.834.652.703-.468zm9.792-5.2l-.622-.49-.452.996 1.074-.506zm-7.583-17.555l-.12-1.112-.372.046-.291.79.783.276zm124.25 34.75l-.653-.859-.332.422.653.86.332-.423zM58.5 328.836l.13-.583-.371.046.241.537zm61.618 10.17l-.372.046.251.537.12-.583zm16.712-21.183l-.331.421.411.33-.08-.751zm60.673 42.773l-.33.421.41.323-.08-.744zm-63.736-32.941l-.623-.49-.372.045.121 1.12.874-.675zM49.27 349.452l.331-.422-.452-.698-.703.468.824.652zm107.015 4.824l.462.698.703-.468-.834-.652-.331.422zm37.221.782l-.703.468.824.652-.12-1.12zm91.869 31.66l2.069 1.626 1.065-.514.833.652-.331.422-.211 1.534.532-.253.663.859 1.366.39 1.858-.23 2.762 1.159.914-.3 1.034-.889-1.657-1.304.332-.414 1.325.023 2.481.253 1.768.721.874-.675-.623-.49-.372.045-2.23-1.418-1.154-.23-.492.628-2.853-1.91-1.647.4-1.366-.392-1.486.184-1.366-.39-.703.46-2.803-1.535-1.777-.72-1.195 1.096.863 1.028 1.527.184zm8.216 2.738l.622.49-.833 1.052-.221-.353-.06-.56.492-.629zm-2.562-.997l1.447 1.143-.332.414-.612-.49-1.256-.147-.361-.782 1.114-.138zm359.752-17.517l-.26-1.48-1.528-1.082-1.104.184-1.065 1.496.482 1.633.934.982 1.416-.606 1.125-1.127zm29.237-185.565l1.677.867.975-.92.02-.951-1.085-.775-.964-.03-2.26-.967-1.286 1.342 1.306.936.593.092 1.024.406zM647.167 364.5l.24-.797-.2-1.105-1.587-1.45-.372.062-.914 1.281-.02.951.854 1.572 1.024.407.975-.92zm30.03-114.72l.452-.637-.934-.99-.04-1.319-1.175-.191-.543 1.227 1.456.713-.24.798 1.024.398zm-4.349-16.943l-.502-.682-.522.276-.08 3.812.722.828.302-.43.08-3.804zm-30.523 144.027l-.26-1.48-.985.92-.261 1.748.2 1.105 1.065-1.503.241-.79zm30.312-137.73l-.934-.99-.613.86-.17 1.165.562 1.044.522-.269.633-1.81zm-36.539 115.58l-.713-.836-1.114.176-.242.798.945.99 1.044-.545.08-.583zm4.69 38.148l-1.285-1.886-.753 1.073.19 1.105 1.025.406.824-.698zm33.798-141.71l-.483 1.596.653.46.914-1.281-.321-1.848-.763 1.073zm2.982-24.964l-.592-.092-.231.798 1.306.928.823-.706-1.306-.928zm-30.22 146.826l-1.306-.928-.462.644 1.165 1.143.673-.491-.07-.368zm34.941-99.95l.301-.43-.411-1.257-.784-1.204.17 2.055.724.836zm-38.547 76.427l-1.045.552.934.99.673-.491-.562-1.05zm30.371-33.554l.834-.698-.07-.368-.563-1.05-.462.643.261 1.473zm-25.3 67.469l.764-1.074-.502-.675-.974.913.713.836zm22.8-141.45l-.513.269.322 1.848.763-1.073-.572-1.044zm1.456-12.194l-.723-.828-.452.644.562 1.043.673-.49-.06-.37zm-32.893 154.28l-.321 1.38.432.308.914-1.289-1.025-.399zm16.29-36.79l-.652-.468-.974.92 1.024.407.603-.86zm19.405-114.522l.442.307.824-.706-.06-.368-.965-.038-.24.805zm-38.959 152.217l-.462.637.663.468.673-.491-.874-.614zm32.722-66.387l-.17 1.166.732-.115.09-.583-.652-.468zm5.223.49l-.653-.467-.452.644.653.46.452-.636zm1.325-83.528l-.24.797 1.114-.176-.874-.621zm-25.731 130.351l-.452.637.432.314.673-.49-.653-.46zm7.974-157.47l-.462.643.432.307.533-.268-.503-.683zm19.254 43.01l-.834.706.442.306.452-.644-.06-.368zm-9.2 69.233l.502.675.312-.43-.814-.245zm1.798-71.265l-.312.43.442.306.302-.43-.432-.306zM641.04 371.755l-.311.43.441.306.302-.43-.432-.306zm13.378-1.78l.311-.429-.592-.092.281.521zM63.232 352.98l-.131.583 1.989.882-2.03 2.14.664.866 1.074-.514 1.648-.399.783.277-.663.843.04.368.04.376 1.246.974 1.316.023.994-1.258-.281-.905.452-1.004-1.035-.813-1.115.138-.371.046-1.527-.184.583-1.58-2.602-1.373-1.074.514zm42.896-24.673l-.613-.491-.663.844.784.276.492-.63zM63.19 347.504l.412.33.332-.422-.412-.322-.332.414zm2.441 1.58l-.452-.698-.582-.115-.874.675.874 1.027 1.034-.89zm50.208-19.926l-.874.675 1.446 1.143.663-.836-.863-1.028-.372.046zm109.375 40.027l.08.744 2.23 1.42 2.31.467 1.245-.728-.663-.86-2.018-1.25-2.32-.467-.864.674zm-110.47-25.915l-.24-.537-.583-.115-.492.63.612.49.703-.468zm-19.394-15.3l-.452-.699-.703.46.452.699.703-.46zM149.034 338l.412.33 1.537.184 1.074-.514-.622-.49-1.899-.139-.502.63zm-139.033 2.24l-.452-.698-.372.046-.874.675.663.859 1.035-.882zm51.895-52.621l-.251-.537-.703.468.25.537.704-.468zm86.837 61.372l-.241-.537-.583-.115-.864.682 1.356.391.332-.421zm-112.61-23.185l-.451-.698-.994-.445-.874.675 1.617.928.703-.46zm45.92 11.389l.985-1.258.954.07 1.205-1.098-.663-.859-1.115.146-.653.506.11-.253-1.194 1.097-.292.79.663.859zm151.92 34.474l.502-.628-1.035-.813-.371.046-.452 1.004 1.356.391zm-10.114-2.876l-.452.997 1.235.982.332-.422-.744-1.603-.371.046zM699.966 49.327l.793-.268.271-.706.251-.1-.01-.536h.523l.351-.184.442-.092v-.13l.261-.139-.01-1.603-.522-.26-.532.268-1.828 1.879-1.306.276-1.306 1.61 2.622-.015zm-3.927 2.96l-.272-1.334-1.044.008-1.838 1.074.01 1.342 1.055.26 2.089-1.35zm10.144 28.255l.793-.537-.01-1.066-1.316-.26-1.044 1.61-.251 1.335 1.054.26.774-1.342zm6.8-6.979l-.262.805-1.044.537-.262 1.074.332-.008-.06.269h.522l.331-.292 2.03-.529v-.53l-.804-1.334-.784.008zm-5.947-29.083l-.01-1.334-.26-.269-1.316.008-.784.805-.251 1.074 1.055.53 1.566-.814zM765.19 8.633l.783-1.342.523-1.335-1.055-.268-1.306 1.61-.26 1.074.531.53.784-.27zm-55.581 25.685l1.054-.813-.271-1.066-1.055-.53-1.054.814.281 1.327 1.045.268zm-.02 43.54l-.252 1.603.784.26 1.054-.805.513-1.342-1.316-.26-.784.544zm-6.107-59.27l-.271-1.864-.794-.537-1.044 1.082.532 1.058 1.577.26zm-5.253 49.445l-.25 1.343.782-.008 1.316-1.074.512-1.074-1.305.008-1.055.805zm18.42-43.64l.522-.536v-1.335l-1.315-.26-.523.805.272 1.066 1.044.26zm-1.075 41.945l-.26.269-.523 1.066-1.055.276.01.798 1.316-.008 1.567-2.14-1.055-.26zm6.338 5.837l-.251 1.342 1.577.253h.783l-1.054-1.066-1.055-.53zm-1.095-8.536l-.793-.269-.522.276-.262 1.066 1.316.261.261-1.334zm26.807-46.9l-.251 1.074 1.837-.015-.01-1.066-1.315-.261-.261.268zm-64.4 47.107l-.783-.269-1.055.276-.261 1.074 1.838-.284.261-.797zm43.007-19.742l-.01-1.603.783-.536.251-1.603-1.054-.261-.784.805-.19.798-.07-.261-.252 1.603.271.798 1.055.26zm17.777-16.121l.261-1.342-1.055-.522-.26.261.26 1.335.794.268zm-23.05 14.012l1.054.261.262-.53-.272-1.334h-.532l-.512 1.603zm16.2-17.18h-1.054l-.252 1.611 1.055-.276.251-1.335zM779.09 2.942h.533l1.305-.805.522-1.074h-.793l-1.567 1.081v.798zm-77.275 88.476l-.794-.261-.26.268-.252 1.074 1.055.26.25-1.341zm73.338-87.38l-1.306.008-.26.798 1.315.26.251-1.065zM703.36 85.268l-.793-.261-.522 1.074 1.054.26.261-1.073zm-9.32-14.273l-.783-.261-.533.268.01.537h-.532l-.251.806 1.306-.545.783-.805zm24.175-1.197l.01.798 1.055-.008.25-1.066h-.522l-.793.276zm-26.003 3.613l-1.044.007-.262.806 1.055.26.251-1.073zm34.64-10.607l-1.054-.261-.251 1.066 1.044-.008.261-.797zm-37.884-6.205l.783-1.074-1.315.008-.251 1.074.783-.008zm-.844-9.878l-.27-.798-1.045.008-.262.268.533.798 1.044-.276zm-11.871-7.148v-1.066l-1.055.007-.26.269.27.797 1.045-.007zM774.67 10.98l.251-1.335-.783.008-.261 1.066.793.26zm-16.32-3.912l-1.055-.26-.262.797 1.055.26.261-.797zm-49.285 70.253h.784l.26-1.342-.532.008-.512 1.334zm-45.718-43.816l-.794-.268-.25 1.073 1.044-.007v-.798zm66.498.43l-.783-.261-.261.805 1.054.26-.01-.804zm-40.777 41.093h.533l.512-1.074-.783.008-.262 1.066zm27.42-33.539l-1.055.008-.261.537 1.054.26.261-.805zm14.382-12.9l-.794-.26-.25.797.783.268.26-.805zm8.637-6.458h-.783v1.074l.793-.276-.01-.798zM767.54 4.345v1.067h.794l-.01-1.074-.784.007zm-87.72 60.582l-.794-.26-.261 1.073.532-.008.522-.805zm24.917-8.95l-.522.007-.261 1.067.793-.008-.01-1.066zm64.39-48.173l-.522-.529-.784.806.794.26.512-.537zm-8.427-3.42h-.783l-.261.268.793.798.251-1.066zm-52.447 69.739v-.537l-.794-.26-.25.805 1.044-.008zm23.01-21.498l-.784.008.271 1.066.513-1.074zm-16.874-8.988l-.793-.798-.261.268.27.806.784-.276zm-11.38-14.097l.262-.798h-.783v.806l.522-.008zm-23.45-11.62l-.533-.26-.251.797.522.269.261-.805zm15.737 42.65l-.26-.797-.523 1.074.783-.276zm-25.771-2.262l-.784.008v.537l.794-.008-.01-.537zm50.8-34.467h-.522l.01.798h.522l-.01-.798zm51.433-17.118l-.532-.53-.261.806.793-.276zm-49.093 57.966h.523l-.272-.797-.25.797zm-38.678-5.66l-.26.537h.793l-.533-.537zm33.938 4.886h.522v-.537l-.522.008v.529zm1.978-21.375h.533v-.537h-.533v.537zM689.54 17.867h-.522v.537l.533-.008-.01-.53zm70.938-6.803l-.01-.537h-.522v.537h.532zm-44.091 59.807l-.271-.53-.261.27.532.26zm-10.837-10.89l.261.529.261-.53h-.522zm-1.888-7.74l.522-.268-.522-.26v.529zm-1.045.008l-.271-.529-.261.269.532.26zm54.497-30.486l-.261.268.532.269-.271-.537zM731.24 48.89l-1.576.008.783-1.074 1.316-.008-.523 1.074zm-3.133 2.148l-.522.537-2.1 1.35-2.36.812-1.305 1.342-2.37.821-1.045 1.074-2.09 1.342-.923-.222-.09-.077 1.787-1.84 3.405-2.156 2.621-1.618 1.577-.545 2.35-1.61 1.055-.008.01.798zM668.8 286.055l.392-1.012 1.898 1.02.06.368-1.476.238-.874-.614zm.171 66.204l.583.092.05 1.319-.593-.092-.04-1.32zm-2.661-3.175l.934-2.24.17-1.166.593.092 1.426-1.557.663.46.04 1.32-.19 2.124-.432 2.915-.462.644-.874-.621.351-2.332-.934-.99.06.369-.934 2.24-.411-1.258zm2.52-54.308l.593.1-.311.429-.281-.53zm.834-21.007l.312-.598.3-.261.413 1.265-.613.86-.412-1.266zm-.733 33.332l.713.828-.673.49-.502-.674-.05.023-.16-.184-.131-.737.1-1.533.874.613-.171 1.174zm2.45-10.837l-.481-1.626.06-2.861-.563-1.043-.894.33-.502-.675.241-.798-.442-.314.553-1.22 1.014.399.422 1.265 1.105-.184.934.99.311-.43.261-1.748-1.024-.407-.723-.828 1.004-1.872-.07-.368.723-2.393-.03-2.278-.563-1.043.603-.859.552-1.227-.482-1.626.302-3.658.863-2.608-.431-.306-.11-1.688.1-1.541-.282-.522-.391 1.013-1.276 1.35.713.828-.301.43-.804-.254-.311.43-.804-.246.131-2.492.914-1.281.02-.951 1.004-1.872 1.457.714 1.064-1.504.503.683.321 1.84-.643 2.762.04 1.327-.472 1.595.151 3.006-.352 2.332-.23 4.026.17 2.063-.12 2.485-.11 1.534.09 2.646-.282 2.7.241 2.424-.482 1.602.744 3.107-1.286 1.342-1.537-.13-1.245-.56.633-1.81zm2.08-4.318l-.864-.622-.241.798.723.836.452-.644-.07-.368zm.743-33.332l.452-.645.723.836-.311.43-.864-.621zm-20.057 117.29l.542-1.227.432.307-.02.95-.462.645-.492-.675zm15.206-104.935l.462-.636.803.245.201 1.105-.432.314-1.034-1.028zm.924 35.15l.17-1.166-.461-2.585-1.587-1.45.632-1.81 1.658 1.826.823-.705 1.175.191.462-.644.804.253.331 1.84.211 3.383-.452.644-.351-.897-.934-.99-.523.277-1.526 2.147-.432-.314zm-9.943 56.448l.502.682-.804-.253.302-.43zM46.529 365.19c-1.054.214-2.11.421-3.164.636l-.803-.238.331-.414 1.899.138 1.737-.122zm61.678-4.18c-1.105-.161-2.18-.307-3.224-.445l-.623-.307-.17.215-1.125-.138-.02-.1.16-1.91 1.818-2.308.462-1.005 1.687-.023 1.035.813-1.446 2.263-.744.092-.873.675 1.205.606 1.777-.982 1.196.606-1.115 1.948zm174.548 39.636l.411.322-.12.583-.994-.445.703-.46zM98.013 350.479l1.486-.184 1.446 1.136 1.075-.514 1.235.981.04.368-1.114.146-1.939-.514-1.526-.184-1.206-.606.503-.629zm1.807 7.892l-1.737-.345-1.195-.606.371-1.748 1.246-.721 2.762-.537.833.652-2.28 3.305zm9.552-6.22l.331.07.13-.17.403-.091 2.35.836-.12.583-1.487.184-.332.421-1.406-.766-.331.421-.824-.652.282-.62 1.004-.216zm1.356 4.28l-.663.836-.743.092-.995-.437.663-.836.914-.307.824.652zm101.681 11.16l.954.068.824.652-1.075.514-1.195-.606.492-.629zm15.477 15.607l.412.33-.331.421-.995-.444.914-.307zm1.316.023l.623.49-.332.422-.823-.651.532-.261zm-85.963-25.977l.572.115.412.322-.663.844-.984-.445.663-.836zm-55.48-2.262l-.453-.698.502-.63 1.688-.022-.12.583-1.618.767zm-2.27-.093l-.824-.651 1.366-1.304.662.859-1.205 1.096zm-3.265-.529l-1.396-.767.331-.422 1.155.23 1.407-.927.612.483-.452 1.004-1.657.4zm-3.465 2.7l-.994 1.258-.995-.437.412-1.373-.864-1.028.332-.414 3.344-.43.452.698-.452 1.005-1.235.721zm.412-4.77l.412.322-.292.797-.984-.445.864-.675zm29.91-3.966l-.985-.437.613-1.212 1.326.023.412.323-.452 1.004-.914.3zm-3.345-1.273l.502-.629.744-.092.411.322-.622 1.212-1.035-.813zm-15.567-2.76l.331-.415.583.115.451.698-1.365-.399zm-7.192-.223l-1.235-.982 1.286-.345 1.034.813-1.085.514zm-3.796-.276l-.743.092-2.481-.253-2.35-.836-1.858.23-2.35-.836-1.487.191-2.48-.253-.583-.759-.03-.107 2.55-.322 4.008.437 3.063.368 1.567.56 2.842.207.834.652-.502.629zm132.937 21.19l-.412-.322.332-.421.411.322-.331.422zm-3.545.261l-.382-.49.09-.415.914-.306.211-.17.362.285-.623 1.211-.572-.115zm62.581 32.71l.623.484-.332.422-.622-.49.331-.415zm-2.15-.674l.624.483-.292.798-1.034-.813.703-.468zM91.857 354.468l-.332.421-1.406-.766.492-.637 1.326.023.864 1.028-.08.95-.864-1.02zm-2.903 4.517l.332-.422.582.123-.13.583-.784-.284zm147.772 20.646l.622.491-.703.468-.994-.445 1.075-.514zm19.113 14.396l2.139.675.623.49-.533.254-2.149-.675-.994-.437.914-.307zm19.484 4.157l.583.115.412.322-.493.63-.994-.438.492-.629zm-98.678-33.639l.412.33-.292.79-.994-.437.874-.683zm17.948 14.166l1.195.606 3.766-.092.201.161-.24 1.166-1.578-.56-2.641-.046-1.195-.606.492-.629zm-54.868-20.838l.612.49-.703.46-.612-.482.703-.468zm-45.146-2.615l.572.115.211.16-.291.79-.944-.068.452-.997zm1.526.184l.703-.468.412.33-.331.414-.784-.276z"
    fill="#f4eed9" />
</svg>