<svg width="94" height="94" viewBox="0 0 94 94" fill="none" xmlns="http://www.w3.org/2000/svg">
<path d="M67.885 31.6542H25.1709V42.3327L22.8827 46.1464L21.3572 54.5367L25.1709 61.4015H64.834L73.6056 57.5877L70.5546 46.1464L67.885 31.6542Z" fill="white"/>
<path d="M51.0342 0.581023C51.0342 1.04318 51.0919 1.21648 51.1785 0.927638C51.2362 0.667677 51.2362 0.263293 51.1785 0.061101C51.0919 -0.112207 51.0342 0.0899853 51.0342 0.581023Z" fill="#FF4800"/>
<path d="M46.4167 1.30321C46.4167 1.70759 46.4745 1.85201 46.561 1.64982C46.6187 1.47651 46.6187 1.1299 46.561 0.927707C46.4745 0.7544 46.4167 0.898822 46.4167 1.30321Z" fill="#FF4800"/>
<path d="M42.6365 2.05424C42.6365 2.37197 42.7231 2.45862 42.8097 2.22754C42.8962 2.02535 42.8674 1.76539 42.7808 1.67874C42.6942 1.5632 42.6077 1.73651 42.6365 2.05424Z" fill="#FF4800"/>
<path d="M50.4278 3.93565C50.197 5.1488 50.0238 6.50638 49.995 6.93965C49.9661 7.34403 49.9084 7.66176 49.8218 7.60399C49.7353 7.54623 49.6487 8.47053 49.6199 9.6548C49.591 10.8102 49.4179 11.9944 49.2447 12.2833C48.9273 12.8032 48.9561 11.9944 49.389 9.19265L49.5333 8.18169L49.187 9.19265C48.783 10.4058 48.783 10.4058 48.0616 5.43765L47.5422 1.82708L47.6576 4.85996C47.773 7.95061 47.6576 7.83507 46.965 4.13784C46.7342 2.86692 46.7053 3.01135 46.7919 5.29323C46.8496 6.70857 47.0227 9.45261 47.2247 11.359C47.5422 14.7963 47.4267 17.1937 46.9362 16.4138C46.763 16.1249 46.6764 16.1827 46.5899 16.5871C46.5033 16.9048 46.359 16.5293 46.2147 15.7494C46.0993 14.9118 46.1282 13.0921 46.3302 11.3012C46.5322 9.62591 46.6187 8.21057 46.561 8.1528C46.5033 8.09503 46.3013 9.07711 46.0705 10.3769C45.8685 11.6478 45.6087 12.601 45.4645 12.4566C45.3202 12.3122 45.0893 11.359 44.945 10.2903C44.8008 9.25041 44.541 8.1528 44.3968 7.86396C44.2525 7.54623 43.8773 6.30419 43.5888 5.09104C43.329 3.849 43.0405 2.89581 42.9539 2.95358C42.8962 3.04023 43.0405 4.36892 43.3002 5.92869C43.5599 7.48846 43.8196 9.79922 43.9062 11.0701C43.9639 12.3411 44.1082 14.7096 44.2236 16.3271C44.339 18.4357 44.3102 19.3022 44.0793 19.3022C43.8773 19.3022 43.7619 18.2913 43.733 16.3271C43.6753 13.9875 43.6465 13.6986 43.5022 14.8829C43.3868 15.6917 43.2425 16.4427 43.1559 16.5582C42.8096 16.8759 41.7708 13.5253 41.5688 11.4745C41.4245 10.0881 41.2802 9.53926 41.1648 9.91476C40.9916 10.348 40.9051 10.2036 40.7319 9.19265C40.5588 8.21057 40.4722 8.03726 40.2991 8.47053C40.1548 8.9038 39.9239 8.5283 39.2891 6.88188C37.3557 1.74042 37.3845 2.05815 39.4622 9.2793C40.7608 13.7853 41.1936 15.9516 40.6742 15.4317C40.5299 15.3162 39.7797 13.2365 38.9428 10.8391C38.0771 8.29722 37.4422 6.79523 37.4422 7.25738C37.4134 7.69065 37.5865 8.35499 37.8174 8.70161C38.2791 9.45261 41.5688 22.1907 41.3379 22.3929C41.1648 22.5662 41.0205 22.2485 39.5488 18.2046C38.9139 16.4427 38.4811 14.5074 38.2214 12.4855C38.0194 10.6658 37.7885 9.62591 37.6731 9.94364C37.5288 10.4058 37.4422 10.3191 37.1825 9.48149L36.894 8.47053L36.8651 9.48149C36.8363 10.2325 36.7497 10.3769 36.5477 10.0592C36.1725 9.48149 36.2014 9.71257 36.6631 11.3879C37.0094 12.7166 37.2402 15.5473 36.9805 15.5473C36.9228 15.5473 36.3745 14.0453 35.7974 12.2255C35.1914 10.4058 34.6431 8.96157 34.6143 9.01934C34.5566 9.07711 34.9605 10.9546 35.5377 13.1787C36.6054 17.5114 36.7785 18.5512 36.1148 17.1359C35.5954 15.9516 35.5954 16.2983 36.1437 18.118C36.3745 18.9556 36.5188 19.7066 36.4611 19.7644C36.2303 19.9955 35.3357 16.7026 35.5088 16.2405C35.5954 16.0094 35.5665 15.5473 35.3934 15.2584C35.2491 14.9696 34.7874 13.6698 34.4123 12.3411L33.6908 9.91476L33.8063 12.11C33.8928 13.3231 34.066 14.6518 34.2391 15.0851C34.7874 16.5582 34.5277 16.8471 33.7774 15.605C33.3734 14.9118 32.2769 12.11 31.3534 9.39484C30.43 6.6508 29.6509 4.54223 29.6509 4.71554C29.6509 4.85996 29.9394 6.21753 30.3146 7.69065C30.8917 9.88588 30.9206 10.2903 30.5743 10.0014C30.2569 9.74145 30.3434 10.0592 30.7763 10.9257C31.44 12.2255 32.8251 16.7604 32.7674 17.5692C32.7674 17.8003 32.3057 16.9048 31.7863 15.5473C31.238 14.1897 30.8052 13.2365 30.7763 13.4387C30.7763 13.612 30.9206 14.1319 31.0649 14.5652C31.238 14.9984 31.3246 15.4028 31.238 15.4606C31.1803 15.5184 30.7763 14.5941 30.3434 13.3809C29.9106 12.1966 29.5066 11.2435 29.4489 11.3012C29.3912 11.359 29.4777 11.8211 29.6509 12.3411C30.1414 13.6986 29.7663 13.7275 28.8717 12.3988C28.4677 11.7345 28.0349 11.2146 27.9772 11.2146C27.8906 11.2146 28.006 11.5034 28.2369 11.85C29.218 13.3809 31.0649 16.9337 31.0649 17.3092C31.0649 17.5403 30.228 16.3271 29.2469 14.6229C28.2369 12.9188 27.3423 11.4168 27.2269 11.3012C27.1115 11.2146 27.804 12.7743 28.7563 14.7963C29.7375 16.8471 30.4589 18.5512 30.4012 18.609C30.3434 18.6668 29.1603 17.2803 27.7752 15.5473C26.3035 13.6986 25.1203 12.4566 24.9183 12.5721C24.7452 12.6877 24.6875 12.5721 24.8029 12.2833C24.9761 11.7923 24.5721 11.3301 24.3124 11.7345C24.2258 11.8789 24.3989 12.3411 24.6875 12.7743C25.0338 13.2943 25.2646 13.4387 25.3512 13.2076C25.4378 12.9476 25.5243 12.9765 25.6686 13.352C25.7841 13.6409 25.7552 13.7853 25.5821 13.6698C25.0626 13.352 25.2646 13.7853 27.0538 16.8759C28.0349 18.5224 28.7852 19.9377 28.7275 20.0244C28.4677 20.2554 23.8218 11.7923 24.0238 11.4745C24.1392 11.2723 24.1104 11.2146 23.9084 11.3301C23.7352 11.4456 23.1869 10.7524 22.5521 9.62591C21.9749 8.58607 21.4555 7.74842 21.3978 7.74842C21.3401 7.74842 22.5232 10.3191 24.0238 13.4387C27.2558 20.111 27.2846 20.1977 26.6498 19.5911C26.2458 19.1867 20.5898 12.1678 19.4355 10.608C18.9161 9.91476 19.7241 11.4745 21.1381 13.9586C21.5421 14.6807 21.7729 15.2584 21.6575 15.2584C21.5421 15.2584 21.7152 15.5473 22.0327 15.8939C22.7541 16.6738 25.9572 22.1907 25.8129 22.364C25.7552 22.4218 23.3312 19.7355 20.4167 16.4138C17.5021 13.0632 15.0781 10.348 15.0493 10.348C14.9916 10.348 16.5499 12.7166 18.541 15.605C20.5032 18.4935 22.0615 20.8909 22.0038 20.9776C21.9461 21.0353 20.9938 20.3999 19.8973 19.5911L17.935 18.0891L19.6375 19.7066C20.5898 20.6021 21.1958 21.3242 21.0227 21.3242C20.8495 21.3242 20.6475 21.2375 20.561 21.0931C20.3878 20.8042 17.7907 18.9556 17.7907 19.1289C17.7907 19.1867 19.4644 20.6887 21.5132 22.4507C25.1203 25.5702 27.2846 27.8232 26.9383 28.1698C26.8518 28.2565 25.9572 27.8232 25.0049 27.2166C24.0238 26.5812 22.8118 25.859 22.2924 25.5702C21.7729 25.2525 19.7241 23.8082 17.7618 22.3062C15.7996 20.8042 14.8473 20.1399 15.6264 20.862C17.2713 22.364 17.1847 22.5373 15.3956 21.4397L14.1836 20.6598L14.905 21.4975C15.5399 22.2196 15.4533 22.1907 14.1836 21.2375C13.4044 20.6598 12.7696 20.0532 12.8273 19.8799C12.8562 19.6777 12.7696 19.62 12.6253 19.7066C12.5099 19.7933 11.4999 19.2156 10.4033 18.4068C8.09478 16.7026 8.18135 16.7893 15.9439 23.6638C19.1758 26.5523 21.8307 28.9497 21.8307 29.0075C21.8307 29.4118 20.763 28.7186 16.723 25.5991C14.2124 23.6927 11.3268 21.4397 10.2879 20.6598L8.41221 19.2156L10.865 21.613C13.2602 23.9238 13.0293 23.866 9.65305 21.3531C8.72963 20.6598 7.83507 20.1688 7.66193 20.2266C7.45993 20.2843 8.78734 21.4975 10.6053 22.8839C12.4233 24.2993 13.5776 25.3391 13.1736 25.2525C12.7696 25.1369 13.2313 25.5124 14.1836 26.0612C15.1359 26.6389 16.6364 27.7365 17.5021 28.5453L19.0893 30.0184L14.905 27.9676C12.5965 26.87 9.56648 25.3391 8.12364 24.617C5.81509 23.4327 5.61309 23.6061 7.69078 25.0214C9.27791 26.0901 12.481 28.372 12.7407 28.632C13.0582 28.9497 12.7985 28.863 11.0959 28.1409C9.10477 27.2744 9.97048 27.881 13.7219 29.9607C16.8961 31.6937 22.4078 35.3043 22.4078 35.622C22.4078 35.7665 19.753 34.5822 16.5787 33.0224C15.107 32.3003 14.1547 31.9248 14.4722 32.1848C15.0493 32.6469 15.0204 32.6469 14.3279 32.4447C13.9239 32.3292 12.3367 31.5782 10.7496 30.7983C7.77735 29.3252 6.62308 29.0364 9.16248 30.3939C11.6442 31.7515 10.5188 31.5204 7.25793 29.9895C5.55537 29.1808 4.11253 28.5742 4.05482 28.6031C4.02596 28.6609 6.56536 30.1051 9.71077 31.867C12.885 33.6001 15.3956 35.0732 15.3379 35.131C15.1647 35.3332 12.2502 34.5822 11.3268 34.12C10.6342 33.7734 8.26792 33.369 8.26792 33.629C8.26792 33.6579 9.13363 33.9756 10.2013 34.3222C12.077 34.9577 15.3379 36.5752 15.1359 36.8063C15.0781 36.8641 12.1636 36.142 8.67192 35.1888C5.20909 34.2356 2.23683 33.4846 2.06369 33.4846C1.9194 33.4846 2.90054 33.889 4.28567 34.4089C5.64194 34.9288 6.85393 35.4198 6.96936 35.5354C7.08479 35.622 5.90166 35.391 4.37224 35.0155C2.81397 34.6111 1.51541 34.3511 1.45769 34.4089C1.39998 34.4667 3.73739 35.2754 6.68079 36.2286C9.59534 37.1529 11.875 37.9906 11.7019 38.0772C11.5576 38.1928 12.481 38.626 13.7507 39.0593C15.0493 39.5215 16.0304 39.9258 15.9727 39.9836C15.915 40.0414 13.087 39.7525 9.68191 39.377C6.30565 38.9726 2.9294 38.5971 2.20797 38.5105C1.48655 38.4238 3.82396 39.0593 7.40221 39.9258C10.9805 40.7635 15.1359 41.8033 16.6364 42.2366C18.137 42.6699 20.2147 43.1898 21.2247 43.4209C22.2635 43.6519 23.2158 43.9697 23.3312 44.0852C23.8795 44.634 20.2724 43.9986 15.2513 42.6699C12.3367 41.89 9.88391 41.2545 9.76848 41.2834C9.65305 41.2834 10.865 41.7456 12.4522 42.2944C14.0393 42.8721 15.4244 43.4209 15.5687 43.5364C15.6841 43.6519 15.0204 43.6519 14.1259 43.5364C13.2025 43.4209 12.1347 43.3342 11.7307 43.3342H11.0093L11.7307 43.5653C12.1347 43.6808 9.73962 43.7386 6.39222 43.7097L0.332275 43.5942L6.79622 44.3741C10.3745 44.7784 13.087 45.1828 12.8562 45.2695C12.6253 45.3273 13.7507 45.5583 15.309 45.7605C16.8673 45.9627 18.2813 46.2516 18.4544 46.4249C18.8584 46.8293 15.8573 47.1181 12.7985 46.9448C11.3268 46.8581 10.5476 46.8581 11.0093 46.9448C12.7985 47.2336 12.2502 47.5514 9.2202 47.9846L6.10365 48.4468L8.55649 48.3312C11.2113 48.2157 10.9516 48.5623 8.15249 48.9089C7.25793 49.0245 6.56537 49.1689 6.62308 49.2556C6.70965 49.3133 9.33563 49.1689 12.4522 48.9089C17.8196 48.4468 21.1381 48.5334 20.8207 49.0534C20.6764 49.2844 18.8295 49.7177 17.7907 49.7755C17.5598 49.8044 17.0404 49.9488 16.6364 50.0932C16.2324 50.2665 14.8184 50.6131 13.4622 50.902C12.1059 51.1908 10.2302 51.653 9.27791 51.9707L7.5465 52.5484L10.3745 52.3462C11.9039 52.2596 13.1736 52.2596 13.1736 52.3173C13.1736 52.404 11.673 52.9817 9.85505 53.5594C8.03707 54.1659 6.59422 54.6859 6.65194 54.7436C6.68079 54.7725 9.0182 54.2237 11.8462 53.5016C14.6742 52.7795 17.0404 52.2307 17.0981 52.2884C17.1558 52.3462 15.2224 53.0394 12.7985 53.7904C10.3745 54.5703 8.15249 55.3213 7.83507 55.4657C7.51764 55.5813 6.01708 56.159 4.51653 56.7078C3.01597 57.2566 1.89055 57.6899 2.00598 57.7187C2.15026 57.7187 3.82396 57.3144 5.72851 56.8233C9.2202 55.9568 11.7307 55.7546 9.19134 56.5634C8.52763 56.7655 8.03707 56.9966 8.09478 57.0544C8.15249 57.141 9.33563 56.8522 10.663 56.4478C13.7796 55.4946 15.1359 55.4657 12.7407 56.4189C10.4322 57.3432 10.8939 57.3144 14.7319 56.3034C18.3101 55.3502 20.6764 54.9747 20.6764 55.3213C20.6764 55.8412 17.1558 57.401 14.5587 58.0365C13.0005 58.412 11.875 58.7875 12.077 58.903C12.3079 59.0474 12.1347 59.1919 11.6442 59.3363C11.1825 59.4229 10.8939 59.5673 10.9516 59.654C11.0382 59.7118 11.8173 59.5674 12.7407 59.3074C13.6353 59.0474 14.4433 58.8741 14.501 58.9608C14.6742 59.1341 12.7985 59.8562 8.21021 61.3582C6.33451 61.9648 4.86281 62.5136 4.92052 62.5425C4.97824 62.6002 6.19023 62.3114 7.66193 61.9359C10.2013 61.2427 11.1825 61.3293 9.4222 62.0514C8.93163 62.2536 8.46992 62.5425 8.38335 62.6869C8.29678 62.8313 9.2202 62.4558 10.4899 61.8203C12.6253 60.7516 17.3867 59.2496 17.7041 59.5385C17.8773 59.7407 13.8084 62.4847 12.9716 62.7447C12.6542 62.8602 12.279 63.1202 12.2213 63.3223C12.1347 63.5534 10.5476 64.2178 8.72963 64.8243C5.15138 66.0086 4.48767 66.413 7.40221 65.662C8.38335 65.402 9.27791 65.2576 9.33563 65.3443C9.4222 65.4309 9.82619 65.3154 10.259 65.1132C11.1825 64.651 16.319 63.3801 16.4921 63.5534C16.5787 63.6401 15.5399 64.5644 14.1836 65.6331C12.8273 66.7018 11.7307 67.6261 11.7307 67.6839C11.7307 67.7417 13.4333 66.6152 15.511 65.1998C17.5887 63.7556 19.349 62.6291 19.4067 62.7158C19.4933 62.8024 18.5698 63.5245 17.3867 64.3622C16.1747 65.1998 15.1936 65.9508 15.1936 66.0086C15.1936 66.0664 15.915 65.7198 16.8096 65.2287C17.6753 64.7088 18.4544 64.3622 18.541 64.4488C18.6275 64.5355 16.6076 65.7775 14.0682 67.2506C7.43107 71.0923 7.89278 71.0345 15.8573 67.1062C18.339 65.8642 20.4455 64.911 20.5032 64.9688C20.6764 65.1421 13.4622 70.8901 10.5765 72.8831C7.11365 75.2517 7.1425 75.3094 10.865 73.4608C12.683 72.5365 15.5399 71.1501 17.2136 70.3991L20.2435 68.9837L18.5121 70.6301C17.5598 71.4967 15.4821 73.2875 13.895 74.5584C12.3079 75.8294 10.9228 76.9848 10.8362 77.1292C10.7496 77.2736 10.5476 77.3891 10.4322 77.3891C10.2879 77.3603 10.1436 77.5336 10.1148 77.7646C10.0859 78.0246 10.9516 77.5336 12.1059 76.667C14.0393 75.2228 19.5221 71.8722 19.955 71.8722C20.0415 71.8722 19.5221 72.681 18.7718 73.663L17.4156 75.4827L19.4933 73.3164C21.4267 71.2945 21.5132 71.2367 20.6187 72.5654C19.6087 74.0674 18.1658 75.6272 16.0304 77.4469L14.7607 78.5445L16.2613 77.5913C17.0981 77.0714 19.147 75.6849 20.8207 74.5007C22.5232 73.3453 23.9372 72.4499 24.0238 72.5365C24.1104 72.5943 23.6198 73.3742 22.9272 74.2118C22.2635 75.0784 21.9461 75.5983 22.2058 75.3672C22.8984 74.8184 22.8118 75.165 21.9461 76.5804C21.0227 78.0824 21.1092 77.9668 24.3989 74.1252C26.9383 71.1212 29.3623 68.6371 29.5643 68.8393C29.622 68.8971 29.3912 69.4459 29.0449 70.1102C28.7275 70.7746 28.5255 71.2945 28.612 71.2945C28.9872 71.2945 27.6309 73.4031 25.3512 76.3493C23.9949 78.0824 22.2347 80.3643 21.4555 81.4041L20.0127 83.2816L21.7441 81.4041C22.6964 80.3643 23.8218 79.1222 24.2835 78.6601L25.0626 77.7935L24.5721 78.6601C24.2835 79.1222 23.4755 80.3065 22.7829 81.2597L21.5132 82.9927L22.8118 81.5485C23.5332 80.7686 24.1392 80.2198 24.1392 80.3354C24.1392 80.4509 23.6198 81.5774 22.9849 82.8483C22.3501 84.1192 21.8595 85.1591 21.9461 85.1591C22.0038 85.1591 22.6387 84.1192 23.3889 82.8483C24.1104 81.5774 24.8318 80.5376 24.9761 80.5376C25.1203 80.5376 25.8418 79.4399 26.5632 78.1113C27.2846 76.7826 28.0926 75.5405 28.3812 75.3094C28.9583 74.8184 28.9872 74.7318 27.4289 78.2268C26.8229 79.5844 25.5243 81.7796 24.5144 83.1372L22.6675 85.5924L24.8895 83.2816C27.602 80.4509 27.3423 80.9997 23.7641 85.679C23.5332 85.939 23.5909 86.0256 23.8795 85.9678C24.1104 85.9101 24.8318 85.1302 25.5243 84.2059C26.1881 83.3105 26.794 82.5595 26.8806 82.5595C26.9672 82.5595 26.4478 83.7437 25.7263 85.1591C25.0049 86.6033 24.4855 87.7587 24.5432 87.7587C24.6009 87.7587 25.4666 86.3722 26.4766 84.6969C29.9972 78.8334 30.4877 78.1113 31.3534 77.2158L32.248 76.3493L31.9594 77.1581C31.7863 77.5913 31.44 78.3423 31.1803 78.8334C30.9494 79.3244 30.7763 79.7577 30.834 79.8154C30.8917 79.8732 31.5554 78.7756 32.3346 77.3314C33.0849 75.8871 33.7774 74.7606 33.8351 74.8184C33.8928 74.8762 33.7486 75.5983 33.5466 76.4359C33.2003 77.7069 31.8729 80.0754 27.3712 87.4699C26.592 88.7119 27.4578 87.7009 28.9006 85.6501C29.6509 84.5814 30.3434 83.7437 30.43 83.8304C30.5166 83.917 30.7474 83.7726 30.9494 83.4838C31.4112 82.9061 30.7474 84.6392 29.8817 86.3722C29.5643 86.9788 29.3912 87.4699 29.4777 87.4699C29.5355 87.4699 29.9395 86.8055 30.3723 85.9967C31.1514 84.437 31.5843 84.2059 31.036 85.6212C30.8629 86.0834 30.6897 86.921 30.632 87.4699C30.5454 88.2208 30.6897 87.9898 31.2092 86.5455C31.8729 84.668 35.0183 78.92 35.278 79.1511C35.5954 79.4977 34.1237 85.5346 33.2291 87.441C32.0749 89.8673 31.9017 90.5605 32.9406 88.6252C33.5177 87.5276 33.6331 87.441 33.6331 88.0475C33.6331 88.4519 33.5177 89.3474 33.3446 90.0406C32.7674 92.5824 33.3157 91.427 34.8163 86.9788C36.2014 82.8772 37.5865 79.7288 37.8751 80.0465C37.9617 80.1043 37.7308 82.4439 37.4134 85.2457C37.096 88.0764 36.8363 90.445 36.8651 90.5605C36.8651 90.7049 37.5865 88.7697 38.4522 86.3145C41.0205 78.9489 41.5111 77.6202 41.6265 77.7069C41.6842 77.7646 41.3956 80.7397 41.0205 84.2925C40.2125 91.5137 40.1548 92.6113 40.7608 89.6362C41.3379 86.6322 42.3768 82.7328 42.6653 82.4151C42.8096 82.2417 42.8673 82.8483 42.7808 83.8593C42.6942 84.8125 42.9539 83.5704 43.329 81.1152C43.7042 78.6601 44.2813 75.8005 44.5699 74.7606L45.147 72.8831L45.349 74.0385C45.6665 75.5983 45.6665 75.9738 45.0605 81.0575C44.8008 83.4838 44.6276 85.5346 44.6853 85.6212C44.7719 85.679 45.0605 84.3792 45.349 82.7039C45.6376 81.0286 45.9262 79.7288 46.0127 79.8154C46.0993 79.9021 46.5322 82.5306 46.965 85.679L47.773 91.3693L47.6576 88.0475C47.5133 84.4659 47.6287 84.4659 48.2059 87.9609C48.783 91.3404 48.7253 89.1452 47.975 80.1043C47.5999 75.6561 47.3979 71.7566 47.5133 71.4389C47.6864 70.9768 47.773 70.9479 47.8884 71.2945C48.5233 73.1142 49.4467 78.0535 50.2547 84.0326C51.1204 90.185 51.2358 90.7049 51.1493 88.2209C51.0338 84.8414 51.3224 85.1013 51.8418 88.9141C52.1593 91.2248 52.2747 91.5137 52.4767 90.7916C52.5921 90.3005 52.5633 89.2318 52.419 88.3364C52.1304 86.8633 51.2936 78.0824 51.2647 76.5226C51.2647 75.165 51.6398 76.2338 52.419 79.8732C52.9384 82.2417 53.2558 83.2238 53.2847 82.5595C53.3135 81.7218 53.3712 81.6352 53.5732 82.1262C53.7175 82.4439 53.833 83.1083 53.833 83.6282C53.8618 84.1192 54.0061 84.6392 54.1792 84.7547C54.439 84.8991 54.4678 84.7258 54.3235 84.1192C54.2081 83.5415 54.237 83.426 54.4101 83.7149C54.5544 83.9459 54.8141 84.928 54.9872 85.8812C55.3335 87.7298 56.1415 90.2139 56.1704 89.4918C56.1704 89.0585 55.4201 84.4947 55.1315 83.1372C55.0449 82.675 55.0738 82.5306 55.2469 82.7039C55.5355 82.9927 58.2769 90.445 58.6232 91.8892C58.7386 92.3225 58.8829 92.6402 58.9406 92.5824C59.0272 92.5247 58.1615 88.943 57.0361 84.6103C55.9395 80.3065 55.0161 76.5515 55.0449 76.2626C55.0449 76.0027 55.5644 77.1869 56.1704 78.9489C56.7764 80.682 57.2958 82.0107 57.2958 81.8951C57.3246 81.7796 56.8629 79.8154 56.3147 77.5624C54.9295 72.0455 54.9584 72.161 55.5644 73.4608C55.8529 74.0963 56.6032 76.667 57.2092 79.1511C58.2481 83.5704 58.7963 85.0435 58.2481 82.0107C58.1038 81.2019 58.0749 80.6242 58.1903 80.682C58.3058 80.7397 59.0272 82.5017 59.7775 84.5814C60.5278 86.6611 61.2203 88.3075 61.278 88.2497C61.3358 88.1631 60.7875 86.1123 60.066 83.6571C59.3446 81.173 58.7675 79.0644 58.7963 78.92C58.7963 78.7756 59.6332 80.9997 60.6432 83.8593C62.3169 88.5675 62.9806 90.0984 62.2303 87.4699C62.086 86.9499 61.884 85.9679 61.7975 85.3324C61.7109 84.6681 61.3935 83.1949 61.1049 82.0396C60.6432 80.2487 60.6143 79.9888 60.9895 80.3065C61.278 80.5376 61.1626 80.1332 60.7009 79.2089C60.0083 77.8513 58.7675 73.5764 58.7675 72.6809C58.7963 71.7855 59.6043 73.4897 61.076 77.5047C61.9129 79.8154 62.6343 81.6641 62.692 81.6063C62.7497 81.5485 62.4612 80.3643 62.0572 78.9778C61.6532 77.5624 61.3935 76.3782 61.4512 76.3204C61.5377 76.2337 61.9995 76.8403 62.5189 77.6491C63.5289 79.2377 64.0483 79.6421 63.1537 78.1401C60.5855 73.8074 59.8929 72.4499 60.3258 72.4499C60.3835 72.4499 61.5955 74.3851 62.9806 76.7826C64.3657 79.1511 65.52 81.1152 65.5777 81.1152C65.6931 81.1152 64.4234 78.2846 63.6443 76.7248C62.692 74.8473 63.1826 75.1939 64.3657 77.2158C64.9717 78.2557 65.52 79.0933 65.5777 79.0933C65.6354 79.0933 65.2314 78.1401 64.6832 77.0136L63.6443 74.9051L64.8563 76.2049C65.52 76.927 66.1837 77.5047 66.3857 77.5047C66.5588 77.5047 66.6743 77.7069 66.6743 77.9668C66.6454 78.2268 66.8186 78.429 67.0206 78.429C67.3668 78.429 67.3668 78.3134 67.0494 77.8224C66.1549 76.4648 61.6532 68.4638 61.6532 68.2616C61.6532 67.7995 62.8075 69.5903 65.2603 73.8363C67.742 78.169 68.752 79.4688 67.2803 76.4359C66.5011 74.8473 66.6743 74.9339 68.2903 77.0136C69.156 78.1112 68.752 77.3891 66.5011 73.7786C65.4046 72.0744 64.5677 70.6013 64.6254 70.5435C64.6831 70.4857 66.328 72.4499 68.2903 74.9051C70.2525 77.3603 71.8974 79.3822 71.9262 79.3822C71.9839 79.3822 71.5799 78.6023 71.0317 77.678C70.4834 76.7248 70.0217 75.8871 70.0217 75.7716C70.0217 75.6561 70.5988 76.2049 71.3202 76.9848C72.1282 77.8224 71.4357 76.7537 69.6465 74.2985C68.0017 72.0455 66.5011 69.8503 66.328 69.3881C66.1549 68.9259 65.7797 68.2327 65.52 67.8283C65.2603 67.424 66.9628 69.0415 69.2714 71.4389L73.5134 75.7716L71.6665 73.0276C69.0117 69.0993 68.6654 68.4927 69.156 68.8682C69.3868 69.0126 70.5122 69.8503 71.6088 70.6879L73.6288 72.2188L71.6088 70.2835C69.3868 68.175 69.56 68.1172 72.1282 70.0525C73.0228 70.7457 73.7731 71.2656 73.7731 71.2078C73.7731 71.1212 72.2148 69.7636 70.3391 68.1461C66.9628 65.2576 64.1926 62.3114 65.2026 62.7158C66.0683 63.0624 70.0794 65.8353 74.3502 69.0993C78.621 72.3632 79.0827 72.4499 75.9662 69.4748C74.3214 67.915 74.5233 67.7128 76.4568 69.0415C77.9573 70.1102 77.207 69.3592 74.3791 66.9329C70.1371 63.3512 70.6277 63.4668 77.0339 67.6262C80.5833 69.9658 81.4202 70.3413 78.9673 68.5505C76.6876 66.8751 77.3513 66.9329 80.4102 68.666C81.3913 69.2148 85.893 71.2945 85.893 71.179C85.893 71.1212 84.9407 70.5146 83.8153 69.8214C82.661 69.157 81.3336 68.2327 80.9007 67.7706C80.439 67.3373 79.9484 67.0196 79.8042 67.1351C79.4579 67.3373 76.9473 65.8931 76.9473 65.4887C76.9473 65.2576 77.5822 65.5753 78.9962 66.4996C79.227 66.673 78.8519 66.2686 78.1305 65.5753C77.409 64.911 76.9185 64.3622 77.0628 64.3622C77.1782 64.3622 78.419 64.9688 79.7753 65.7198C83.0938 67.4817 82.5456 67.0196 77.7265 63.9578C75.5333 62.5425 73.8019 61.3582 73.8885 61.2715C73.9462 61.2138 75.3025 61.8203 76.9185 62.6002C78.5345 63.409 79.833 64.0156 79.833 63.9578C79.833 63.9 78.4767 63.0335 76.803 62.0514C75.1293 61.0693 73.7731 60.2028 73.7731 60.145C73.7731 60.0584 75.5333 60.896 77.6688 61.9937C79.8042 63.0913 81.5644 63.9289 81.5644 63.9C81.5644 63.8712 80.6987 63.2357 79.6599 62.4847C77.5822 60.9827 77.3802 60.5205 79.2559 61.4737C79.9196 61.8203 80.5256 62.0514 80.5833 61.9937C80.6122 61.9359 79.5156 61.2715 78.1016 60.4917C76.6588 59.7407 75.5045 59.0474 75.5045 58.9608C75.5045 58.5275 78.015 59.5674 83.0938 62.0803C86.2104 63.669 88.7787 64.8821 88.7787 64.8243C88.7787 64.7377 87.2781 63.8134 85.4601 62.7735C83.6133 61.7048 82.1704 60.7516 82.257 60.6939C82.3147 60.6361 84.1327 61.0405 86.2681 61.5893C88.4035 62.167 90.2792 62.6291 90.3946 62.6002C90.7409 62.6002 86.297 60.9249 85.0273 60.6072C81.5356 59.7118 74.6099 56.7655 75.0139 56.39C75.0716 56.3034 75.7065 56.5056 76.399 56.7944C77.0916 57.0833 77.8419 57.2855 78.0727 57.1988C78.3325 57.1122 78.3902 57.1988 78.2459 57.4299C78.1016 57.6899 78.1305 57.7476 78.3325 57.6032C78.5345 57.4877 79.8042 57.9209 81.1604 58.5853C82.5456 59.2207 83.6998 59.7118 83.7576 59.654C83.7864 59.6251 82.9784 59.1341 81.9396 58.5853C80.9007 58.0365 80.2659 57.5454 80.4967 57.4877C80.7276 57.4299 83.0073 57.8054 85.5178 58.2675C88.0572 58.7586 90.3081 59.163 90.5389 59.163C90.7698 59.163 88.6921 58.3831 85.9218 57.4299C83.1516 56.4767 80.8142 55.639 80.7564 55.5524C80.4967 55.2924 81.045 55.408 83.2958 55.9857C86.4412 56.7944 86.4412 56.65 83.2958 55.5524C81.7953 55.0325 80.8142 54.5703 81.1316 54.5703C81.449 54.5703 83.9307 54.8014 86.6144 55.148C93.7709 56.0145 94.4923 56.0723 92.2415 55.5813C90.4235 55.1769 83.5844 52.9239 83.2958 52.6062C83.2093 52.5195 83.873 52.5195 84.7387 52.6351C85.6044 52.7217 84.277 52.3173 81.7953 51.7107C79.2847 51.1042 77.1493 50.4976 77.0339 50.3821C76.8896 50.2376 77.207 50.2087 77.6688 50.2954C78.1593 50.3821 79.9773 50.6131 81.7087 50.7864C83.469 50.9597 86.3547 51.3641 88.1727 51.6819C89.9618 51.9996 91.4912 52.2018 91.5489 52.144C91.6066 52.1151 90.2215 51.6819 88.4612 51.2486C86.7298 50.7864 85.2293 50.2954 85.1427 50.1799C85.0561 50.0354 84.6521 49.9199 84.2193 49.9199C83.7864 49.9199 81.8819 49.4866 79.9773 48.9667C77.207 48.1868 76.6876 47.9557 77.3513 47.8402C78.419 47.638 87.7687 48.1002 90.2215 48.4757C91.2604 48.6201 92.2703 48.7645 92.5012 48.7645C93.6266 48.7645 92.1549 48.4468 86.7587 47.4647C83.4978 46.887 80.7564 46.3093 80.6122 46.1938C80.4967 46.0783 83.3536 45.5872 86.9607 45.0962C93.2226 44.2296 93.3958 44.2008 90.1638 44.3452C88.2881 44.4318 86.7587 44.4318 86.7587 44.3741C86.7587 44.2874 88.3169 43.9697 90.2215 43.7097C92.1261 43.4209 93.6555 43.132 93.5978 43.0743C93.5112 42.9876 81.1027 43.9119 77.3802 44.2874C76.2836 44.4029 75.7642 44.3741 75.9373 44.2008C76.3702 43.7675 82.4879 41.8322 83.3247 41.8322C83.7576 41.8322 84.1616 41.6589 84.2481 41.4278C84.3347 41.1968 86.0084 40.6479 88.5189 40.0703C91.7798 39.3193 92.4435 39.0593 91.8375 38.9149C91.3758 38.7705 90.5101 38.8571 89.7021 39.1171C86.4124 40.0991 73.1959 41.8033 73.1959 41.2256C73.1959 41.139 73.8019 40.879 74.5811 40.6768C75.3313 40.4746 76.3413 40.1569 76.803 39.9547C78.5633 39.2037 79.833 38.9726 85.7487 38.2216C93.3669 37.2973 93.4823 37.2685 88.9229 37.384L85.1715 37.4706L87.3358 37.0663C88.5189 36.8641 89.9041 36.633 90.3658 36.6041C90.8564 36.5752 90.3946 36.4597 89.3558 36.3442C88.3169 36.2575 87.105 36.2575 86.6144 36.373C84.9407 36.7774 83.267 36.9218 83.4113 36.6908C83.4978 36.5463 85.2581 35.8242 87.3358 35.0443C89.4135 34.2933 91.0872 33.629 91.0295 33.5712C90.9718 33.5423 89.0961 33.9756 86.8741 34.6111C84.6233 35.2177 82.3724 35.7953 81.8241 35.882C81.2759 35.9686 80.0062 36.3153 78.9673 36.633C76.4568 37.4129 75.9951 37.3551 77.3802 36.4886C78.7653 35.6509 83.5556 34.0334 87.4224 33.138C89.3269 32.6758 90.0772 32.387 89.7887 32.2425C89.5578 32.0981 88.6344 32.1848 87.6244 32.4447C85.1427 33.0802 83.2958 33.3979 83.2958 33.1957C83.2958 33.1091 84.5367 32.3003 86.0661 31.4338C87.5667 30.5672 88.6632 29.8162 88.4901 29.7585C88.2881 29.6718 88.0572 29.7585 87.9418 29.9318C87.6244 30.4517 82.7476 32.5603 80.0639 33.3402C75.3025 34.6977 77.1493 33.3979 82.3436 31.6937C83.9596 31.1738 85.2581 30.6828 85.2004 30.625C85.1427 30.5961 84.075 30.7983 82.863 31.116C79.5733 31.9537 80.5833 31.376 84.9407 29.9607C89.0672 28.6031 89.8464 28.1698 86.4412 29.123C85.287 29.4407 84.1327 29.7007 83.873 29.7007C83.1227 29.6718 84.7675 28.6031 86.5567 27.9387C88.2015 27.3033 88.7787 26.8989 87.5667 27.1877C86.9895 27.3322 87.0184 27.2744 87.7687 26.6389C88.4612 26.0612 88.1149 26.1479 86.1815 27.13C83.873 28.2565 79.1982 29.8162 78.6499 29.6429C78.5056 29.5852 80.035 28.2565 82.0261 26.6678C84.0173 25.0792 85.7198 23.6927 85.7775 23.5772C85.9507 23.3172 82.6321 24.8192 78.1305 27.0722C74.4368 28.9497 73.1959 29.4985 73.1959 29.2674C73.1959 29.0364 80.3236 23.375 83.065 21.4108C84.5367 20.371 85.6333 19.5622 85.4601 19.6489C84.6233 19.9955 81.6221 21.4397 80.035 22.2196L78.2459 23.115L79.5444 21.7286L80.843 20.3421L79.4867 21.4108C78.7076 21.9885 77.5533 22.9128 76.8896 23.4616C75.8508 24.2993 71.7531 26.4079 71.7531 26.0901C71.7531 25.9457 81.3913 18.2624 82.661 17.4248C83.3247 16.9915 83.873 16.5582 83.873 16.5004C83.873 16.356 83.5267 16.5582 81.9973 17.5692C79.9196 18.9267 74.0328 22.2774 73.9174 22.1329C73.6865 21.9307 77.7265 16.8182 79.0539 15.6339C79.7176 15.0273 80.1504 14.6229 79.9773 14.7385C79.4867 15.1718 79.1982 14.9696 79.5444 14.4496C79.7465 14.1897 79.4002 14.4785 78.7942 15.1429C77.8996 16.0672 72.4168 20.0532 70.0505 21.4686C69.4734 21.8152 69.7331 21.4397 72.8496 17.2803C75.1582 14.2186 75.3313 13.9297 73.9462 15.4028C72.1859 17.2803 72.2725 16.7604 74.1771 13.9586C74.8408 13.0054 75.3891 12.0233 75.4468 11.7923C75.591 11.1568 75.1871 11.619 73.2537 14.3341C71.3202 17.0204 65.3757 24.1837 65.0294 24.1837C64.6543 24.2126 67.6843 18.5224 68.8385 17.0492C69.4157 16.2983 70.974 14.2474 72.3014 12.5144L74.7253 9.33707L72.3302 11.7923C70.0794 14.1319 70.0217 14.1608 71.0605 12.6588C71.6665 11.7923 72.5322 10.5502 73.0228 9.91476L73.8885 8.75938L72.9074 9.62591C72.3879 10.0881 72.0417 10.3191 72.1571 10.117C72.2725 9.94365 72.2437 9.77034 72.1282 9.77034C71.9839 9.77034 71.4068 10.5791 70.8008 11.5612C69.7043 13.4387 68.6365 14.854 68.4634 14.6518C68.4057 14.5941 69.2425 12.7454 70.3102 10.5502C71.4068 8.38388 72.1571 6.59303 72.0417 6.59303C71.8974 6.59303 71.7242 6.82411 71.6377 7.08407C71.5222 7.37292 70.4834 8.64384 69.2714 9.91476C67.1648 12.1389 67.136 12.1678 68.1748 10.6369C68.7808 9.77034 69.6754 8.5283 70.1371 7.89284C70.6277 7.25738 70.8297 6.91076 70.57 7.08407C70.3102 7.28626 70.0505 7.37292 69.964 7.28626C69.8774 7.19961 69.0694 8.1528 68.1748 9.39484C66.3857 11.9078 65.5489 12.9476 65.2891 12.9476C65.2026 12.9476 65.6931 11.7056 66.4146 10.2036C67.1071 8.70161 67.6266 7.45957 67.5688 7.45957C67.5111 7.45957 66.9628 8.38388 66.3857 9.48149C65.8086 10.608 65.2603 11.4745 65.2026 11.3879C65.1449 11.3301 65.4046 10.608 65.8086 9.79922C67.136 7.17072 66.3857 8.23945 63.9329 12.3699C62.6343 14.5941 61.5089 16.356 61.4512 16.2983C60.9606 15.8072 63.2403 11.3012 66.8186 5.7265C67.9151 4.02231 66.5588 5.61096 64.9717 7.86396C64.0194 9.22153 63.1537 10.348 63.0383 10.348C62.7786 10.348 63.4423 8.49942 64.3657 6.6508C65.2026 5.00438 65.318 4.39781 64.6832 5.26434C64.4523 5.58207 64.2503 5.7265 64.2503 5.55319C64.2503 5.40877 63.9329 6.01534 63.5866 6.88188C62.8363 8.70161 59.6332 14.4785 59.46 14.3341C59.2003 14.0453 61.1626 5.17769 61.7975 3.73346C62.4035 2.37589 62.4323 2.23146 61.9417 2.83804C61.6243 3.24242 61.3069 3.79123 61.2203 4.05119C60.9606 4.80219 57.6421 10.7235 57.2669 11.0701C57.0649 11.2723 57.0072 11.1279 57.1226 10.6369C57.2092 10.2325 57.3535 8.87492 57.4401 7.60399L57.6132 5.29323L57.1804 6.73746C56.9495 7.51734 56.7475 8.5283 56.7475 8.96157C56.7475 9.42372 56.6321 9.77034 56.4589 9.77034C56.3147 9.77034 56.2569 10.2036 56.3147 10.6946C56.4301 11.3012 56.3724 11.4456 56.2569 11.1279C56.0838 10.7813 55.8241 11.4168 55.3335 13.2943C54.7275 15.7494 53.6887 18.3491 53.429 18.0891C53.3712 18.0313 53.6887 16.6449 54.1504 14.9696C54.6121 13.2943 54.9295 11.9078 54.8718 11.85C54.8429 11.7923 54.3812 13.0054 53.8618 14.5363C53.3424 16.0672 52.8807 17.2514 52.7941 17.1937C52.7364 17.107 52.823 15.7494 52.9961 14.1319C53.5732 9.2793 53.1981 10.2903 52.015 16.8471C51.3801 20.2843 50.7453 23.1728 50.601 23.2594C50.2836 23.4616 50.4278 22.5084 51.5821 16.2983C52.0727 13.7853 52.3901 11.6767 52.3613 11.619C52.3035 11.5612 51.813 13.2076 51.2936 15.2873C50.3124 19.0134 49.6487 20.4576 49.995 18.0891C50.0816 17.3959 50.601 15.114 51.1781 12.9765C51.7264 10.868 52.1304 9.07711 52.0438 9.01934C51.9861 8.96157 51.6687 9.82811 51.2936 10.9546C50.9473 12.0811 50.5721 12.9188 50.4856 12.861C50.399 12.7743 50.5144 10.2903 50.7164 7.31515C50.8896 4.36892 51.005 1.91373 50.9473 1.82708C50.8607 1.76931 50.6298 2.7225 50.4278 3.93565ZM59.8063 9.2793C59.6043 9.97253 59.2869 10.7813 59.0849 11.099C58.7963 11.5612 58.7675 11.5034 58.9406 10.6369C59.1138 9.6548 59.8063 8.03726 60.066 8.03726C60.1238 8.03726 60.0083 8.58607 59.8063 9.2793ZM67.54 14.5941C65.924 17.5403 64.7986 19.2156 63.3269 20.7754L61.3357 22.9128L62.6632 20.2554C63.7886 17.9447 69.3291 10.1458 69.6465 10.4347C69.6754 10.4925 68.752 12.3699 67.54 14.5941ZM57.9306 13.1209C57.5844 13.8719 57.2381 14.4208 57.1515 14.3341C57.0649 14.2474 57.2958 13.5831 57.6421 12.8321C58.4789 11.1279 58.7098 11.3301 57.9306 13.1209ZM56.0838 12.7166C55.9972 12.9188 55.9395 12.7743 55.9395 12.3699C55.9395 11.9656 55.9972 11.8211 56.0838 11.9944C56.1415 12.1966 56.1415 12.5433 56.0838 12.7166ZM58.0749 15.8361C57.6709 17.3092 57.1804 18.6668 57.0072 18.8401C56.7764 19.0712 56.7186 19.0134 56.8341 18.5801C56.9206 18.2624 57.1515 17.4248 57.3246 16.7026C57.8729 14.5074 58.5655 12.4855 58.6809 12.8321C58.7386 13.0054 58.4501 14.363 58.0749 15.8361ZM29.5066 18.8979C32.5366 23.3172 33.6908 25.1658 32.8829 24.357C32.4211 23.866 25.8706 14.1608 25.8706 13.9297C25.8706 13.5831 25.9861 13.7275 29.5066 18.8979ZM74.7542 19.6489C74.2925 20.1688 73.1959 21.3819 72.3302 22.3351C70.7142 24.0971 70.368 24.357 67.8574 25.8013L66.4146 26.61L68.0017 24.9636C69.7331 23.1439 74.8985 18.7534 75.3313 18.7534C75.5045 18.7246 75.2448 19.1578 74.7542 19.6489ZM47.8019 20.0821C47.8019 20.7754 47.7153 21.0353 47.5422 20.8042C47.3402 20.4576 47.4267 19.0134 47.6864 19.0134C47.7442 19.0134 47.8019 19.5044 47.8019 20.0821ZM54.3524 22.2485C54.2658 22.4796 54.1792 22.3929 54.1792 22.0752C54.1504 21.7574 54.237 21.5841 54.3235 21.6997C54.4101 21.7863 54.439 22.0463 54.3524 22.2485ZM33.9506 33.6579C34.5854 34.2356 34.9028 34.8133 34.9894 35.622C35.2491 37.7306 33.8928 39.1748 31.3246 39.4637L29.7663 39.6659L29.6797 41.139C29.622 42.1788 29.7086 42.6988 30.0549 42.9876C30.8629 43.6519 30.4877 43.8541 28.41 43.8541H26.3612L26.9672 43.1898C27.5443 42.5543 27.602 42.2366 27.602 38.3661C27.602 34.4955 27.5443 34.1778 26.9672 33.5423L26.3612 32.878H29.7086C32.9694 32.878 33.1137 32.9069 33.9506 33.6579ZM52.9961 34.7555C52.9961 36.5752 53.025 36.633 53.7175 36.633C54.1215 36.633 54.439 36.7774 54.439 36.9218C54.439 37.0951 54.1215 37.3551 53.7175 37.4995C53.0538 37.7595 52.9961 37.9039 52.9961 39.7236C52.9961 42.3233 53.1981 42.9876 53.9772 42.9876C54.3235 42.9876 54.7564 42.8432 54.9584 42.641C55.5067 42.0922 55.3912 42.9876 54.8141 43.6231C54.1215 44.4029 52.5633 44.3163 51.6975 43.4209C51.0338 42.7854 50.9761 42.4966 50.9761 40.3591C50.9761 38.5971 50.8607 37.8461 50.5144 37.4706C50.0816 37.0085 50.1393 36.8063 51.2647 34.9288C51.9284 33.8023 52.5921 32.878 52.7364 32.878C52.8807 32.878 52.9961 33.7157 52.9961 34.7555ZM38.2791 37.0951C38.2791 37.4706 38.3945 37.4706 39.1448 37.0663C40.2991 36.4597 40.5299 36.5175 40.3568 37.3551C40.2991 37.7884 40.0394 38.0772 39.7508 38.0772C38.8562 38.0772 38.5677 38.7127 38.5677 40.7924C38.5677 42.2655 38.6831 42.9298 39.0582 43.3342C39.4911 43.8253 39.4334 43.8541 37.4711 43.8541C35.5377 43.8541 34.8163 43.5653 35.8263 43.1609C36.49 42.9298 36.4323 38.7416 35.7685 38.0195C35.2203 37.4129 35.1914 37.4418 36.692 36.8641C37.9617 36.4019 38.2791 36.4308 38.2791 37.0951ZM46.3302 36.8063C46.8207 37.1529 47.0804 37.1818 47.3113 36.9507C48.177 36.0842 48.379 36.6041 48.379 39.5792C48.379 42.2077 48.4367 42.5832 49.0139 43.1898L49.6199 43.8541H48.1481C47.2824 43.8541 46.6476 43.7097 46.6476 43.5364C46.6476 43.392 46.359 43.4498 46.0127 43.6808C44.0216 45.0673 40.8762 42.9009 40.8762 40.1569C40.8762 37.3551 44.1948 35.3332 46.3302 36.8063ZM61.6532 37.124C62.2015 37.644 62.6055 38.3083 62.692 38.9726L62.8652 40.0125L60.6432 40.388C58.2192 40.7924 57.8729 41.139 58.5943 42.2655C59.1138 43.0743 60.6432 43.2476 61.6532 42.641C62.5766 42.0633 62.7209 42.6988 61.8263 43.4786C61.1049 44.0852 60.7586 44.2008 59.5466 44.0563C57.7864 43.9119 56.7186 43.132 56.1992 41.6589C55.6221 40.0414 55.9684 38.5105 57.1804 37.2973C57.9883 36.4886 58.3346 36.3442 59.46 36.3442C60.4989 36.3442 60.9606 36.5175 61.6532 37.124ZM66.2703 37.0951C66.2703 37.4706 66.3857 37.4706 67.136 37.0663C68.2903 36.4597 68.5211 36.5175 68.348 37.3551C68.2903 37.7884 68.0305 38.0772 67.742 38.0772C66.8474 38.0772 66.5588 38.7127 66.5588 40.7924C66.5588 42.2655 66.6743 42.9298 67.0494 43.3342C67.4823 43.8253 67.4246 43.8541 65.4623 43.8541C63.5289 43.8541 62.8075 43.5653 63.8174 43.1609C64.4811 42.9298 64.4234 38.7416 63.7597 38.0195C63.2114 37.4129 63.1826 37.4418 64.6832 36.8641C65.9529 36.4019 66.2703 36.4308 66.2703 37.0951ZM19.2913 37.4706C20.359 37.8461 21.3112 38.2505 21.4267 38.395C21.6864 38.8571 20.1281 38.395 18.2236 37.4706C16.319 36.5463 16.4344 36.5463 19.2913 37.4706ZM43.9062 53.5305V59.3074H43.1848H42.4633L42.3768 53.8193C42.3479 50.8153 42.3768 48.1868 42.4633 47.9557C42.5499 47.7536 42.8962 47.6091 43.2425 47.6669C43.9062 47.7536 43.9062 47.7536 43.9062 53.5305ZM62.4612 48.5334C62.5477 49.2556 62.4612 49.3422 61.682 49.3422C60.9318 49.3422 60.7875 49.2267 60.7875 48.6779C60.7875 47.8113 61.0472 47.5514 61.7975 47.6669C62.1726 47.7247 62.4035 48.0135 62.4612 48.5334ZM30.2857 48.8223C31.036 49.3711 31.9306 50.8731 31.9306 51.653C31.9306 51.7974 31.6131 51.9418 31.2092 51.9418C30.6897 51.9418 30.4012 51.6819 30.0549 50.9309C29.1026 48.9667 26.2169 49.0245 25.1781 51.0464C24.5144 52.2884 24.5721 55.2924 25.2646 56.5634C25.8995 57.7765 27.2846 58.3542 28.5832 57.9787C29.7086 57.661 30.1414 57.1988 30.3723 56.0434L30.5743 55.1191H29.218C28.006 55.1191 27.8906 55.0614 27.8906 54.397C27.8906 53.7038 27.9483 53.6749 29.9106 53.6749H31.9306V55.1191C31.9306 58.3253 29.5932 60.1739 26.5343 59.4229C22.9272 58.4986 21.7152 52.6351 24.4855 49.4866C25.9283 47.8113 28.4677 47.5225 30.2857 48.8223ZM38.0482 50.7864C39.7796 51.2775 40.0105 51.8552 40.0105 55.899C40.0105 59.2207 39.9817 59.4518 39.4622 59.4518C39.1448 59.4518 38.8562 59.2785 38.7697 59.0763C38.6831 58.8163 38.5677 58.8164 38.2502 59.0474C37.096 59.9429 34.6143 59.654 33.8063 58.4986C32.7674 57.0255 33.5177 55.4369 35.5954 54.6859C36.3745 54.397 37.3268 54.0504 37.7885 53.906C38.7985 53.5305 38.8274 52.6351 37.8462 52.1729C36.894 51.7396 35.6243 52.144 35.2491 53.0394C35.076 53.3861 34.7874 53.6171 34.5854 53.5305C34.3546 53.4438 34.066 53.3861 33.9217 53.3861C33.46 53.3861 33.6331 52.6351 34.268 51.8263C34.7297 51.2197 35.7685 50.6998 36.8362 50.5265C36.9228 50.4976 37.4711 50.642 38.0482 50.7864ZM51.7553 51.2486C52.621 51.7974 53.2847 53.155 53.3712 54.4837L53.429 55.5524L50.3124 55.639C47.2536 55.7257 47.1959 55.7257 47.369 56.3612C47.6287 57.1988 48.8407 58.2964 49.5621 58.2964C50.2836 58.2964 51.2358 57.8054 51.8418 57.1122C52.217 56.65 52.3324 56.6211 52.7941 56.9677C53.2847 57.3432 53.2847 57.4299 52.8518 58.0942C52.2747 58.9897 50.8896 59.5962 49.4467 59.5673C45.1182 59.4518 44.3968 52.0574 48.5521 50.7864C49.5333 50.4976 50.8607 50.6709 51.7553 51.2486ZM70.4834 51.2775C71.3202 51.8263 72.0417 53.386 72.0417 54.657V55.6968H69.0117C67.2803 55.6968 65.9817 55.8124 65.9817 55.9857C65.9817 56.6789 66.7031 57.7187 67.4246 58.0076C68.4345 58.412 69.5888 58.1231 70.2525 57.2855C70.6565 56.7944 70.8874 56.6789 71.2625 56.91C71.9262 57.2855 71.8685 57.8054 71.0894 58.5275C69.5023 60.0006 67.0783 59.8851 65.5489 58.2964C64.7409 57.4588 64.6832 57.2566 64.6832 55.1191C64.6832 52.9817 64.7409 52.7795 65.5489 51.9418C66.9051 50.4976 68.9251 50.2376 70.4834 51.2775ZM56.7475 51.0753C56.7475 51.2775 56.9206 51.2775 57.2958 51.0753C57.6132 50.9309 58.2192 50.7864 58.6232 50.7864C59.2292 50.7864 59.3735 50.902 59.2292 51.2486C59.1426 51.5086 59.0561 51.7974 59.0561 51.9418C59.0561 52.0862 58.7098 52.2307 58.2769 52.2884C57.0938 52.4329 56.7475 53.3861 56.7475 56.6211C56.7475 59.4518 56.7475 59.4518 56.0261 59.4518H55.3047V55.1191V50.7864H56.0261C56.4301 50.7864 56.7475 50.9309 56.7475 51.0753ZM62.3746 55.1191C62.3746 59.2496 62.3746 59.3074 61.7397 59.394C61.076 59.4807 61.076 59.4807 61.076 55.1191C61.076 50.7576 61.076 50.7576 61.7397 50.8442C62.3746 50.9309 62.3746 50.9886 62.3746 55.1191ZM21.2824 59.2785C20.8784 59.7407 18.0793 61.0116 17.8773 60.7805C17.6753 60.5783 20.2435 59.2496 21.5132 58.903C21.5709 58.8741 21.4555 59.0474 21.2824 59.2785ZM71.4357 61.9648C72.5611 62.7158 73.4268 63.3801 73.3402 63.4379C73.1959 63.6112 69.2425 61.2715 69.0117 60.896C68.6365 60.2895 69.4445 60.665 71.4357 61.9648ZM22.5521 62.3403C22.0904 62.658 21.5709 62.918 21.3978 62.918C20.9361 62.8891 22.4944 61.7626 22.9849 61.7626C23.2158 61.7626 23.0427 62.0225 22.5521 62.3403ZM15.511 62.5136C14.9916 62.7447 14.4722 62.8891 14.3856 62.8024C14.2124 62.6002 15.4533 62.0803 16.0593 62.0803C16.2901 62.1092 16.0593 62.2825 15.511 62.5136ZM26.7363 68.3194C26.7363 68.7815 21.0515 73.6053 20.5321 73.6053C20.0127 73.6053 23.8218 69.5903 25.1203 68.7815C25.9283 68.2905 26.6209 67.8572 26.6786 67.8572C26.7075 67.8283 26.7363 68.0594 26.7363 68.3194ZM32.046 72.3343C31.0649 74.5007 28.7275 77.9957 27.6886 78.8334C27.0249 79.4111 30.3434 73.2009 31.6997 71.3523C32.3346 70.4857 32.9117 69.8503 32.9694 69.9369C33.0271 69.9947 32.6231 71.0634 32.046 72.3343ZM63.8174 73.4897C65.2026 75.4828 66.2703 77.1581 66.1837 77.2447C66.126 77.3025 65.0294 75.8294 63.7597 73.9808C61.1626 70.1391 60.9895 69.8503 61.1915 69.8503C61.2492 69.8503 62.4612 71.4967 63.8174 73.4897ZM53.2558 78.6601C53.2847 79.1511 53.227 79.1511 52.9961 78.8045C52.8518 78.5734 52.7364 78.0535 52.7364 77.6491C52.7364 76.9847 52.7653 76.9847 52.9961 77.5047C53.1404 77.8224 53.2558 78.3423 53.2558 78.6601Z" fill="#FF4800"/>
<path d="M29.7376 34.3471C29.6511 34.5493 29.6222 35.5025 29.6799 36.4268C29.7665 38.0732 29.7954 38.131 30.6322 38.2177C32.0462 38.3621 32.5656 37.7555 32.5656 35.9935C32.5656 35.0115 32.4213 34.3471 32.1905 34.2027C31.5556 33.7983 29.9108 33.885 29.7376 34.3471Z" fill="#FF4800"/>
<path d="M43.7909 37.871C42.7232 39.2286 43.156 42.6081 44.4257 42.8392C46.2437 43.1858 46.9363 38.3332 45.2049 37.4089C44.4835 37.0045 44.4546 37.0045 43.7909 37.871Z" fill="#FF4800"/>
<path d="M58.681 37.64C58.4213 37.9288 58.1904 38.5354 58.1904 38.9687C58.1904 39.7197 58.2481 39.7486 59.287 39.5464C60.7875 39.2864 61.0184 38.9976 60.499 38.0444C59.9507 37.0912 59.3159 36.9468 58.681 37.64Z" fill="#FF4800"/>
<path d="M36.9807 55.404C35.1916 56.0684 34.701 56.5305 34.9319 57.2815C35.1628 58.0325 35.9996 58.3214 37.125 58.0614C38.2793 57.8015 38.6256 57.2815 38.5102 55.9817L38.4236 54.8552L36.9807 55.404Z" fill="#FF4800"/>
<path d="M48.3214 52.4288C47.9174 52.7465 47.5134 53.2664 47.4268 53.5841C47.2825 54.133 47.398 54.1618 49.5622 54.1618C51.6111 54.1618 51.8419 54.1041 51.8419 53.613C51.8419 52.9198 50.5434 51.8511 49.6777 51.8511C49.3314 51.8511 48.6965 52.111 48.3214 52.4288Z" fill="#FF4800"/>
<path d="M67.2516 52.1978C66.7322 52.4288 65.9819 53.5265 65.9819 54.0175C65.9819 54.1041 67.0208 54.1619 68.2905 54.1619C70.8876 54.1619 71.1762 53.8442 69.8776 52.5733C69.1562 51.8223 68.2616 51.6778 67.2516 52.1978Z" fill="#FF4800"/>
<path d="M57.6711 4.33603C57.6711 4.79818 57.7289 4.97149 57.8154 4.68264C57.8731 4.42268 57.8731 4.0183 57.8154 3.81611C57.7289 3.6428 57.6711 3.84499 57.6711 4.33603Z" fill="#FF4800"/>
<path d="M36.5767 7.83109C36.5767 8.14882 36.6633 8.23548 36.7498 8.0044C36.8364 7.80221 36.8076 7.54224 36.721 7.45559C36.6344 7.34005 36.5478 7.51336 36.5767 7.83109Z" fill="#FF4800"/>
<path d="M53.3135 9.56412C53.3135 9.88185 53.4001 9.96851 53.4867 9.73743C53.5732 9.53524 53.5444 9.27528 53.4578 9.18862C53.3712 9.07309 53.2847 9.24639 53.3135 9.56412Z" fill="#FF4800"/>
<path d="M16.6365 18.1718C16.6365 18.2295 16.8673 18.4606 17.1559 18.6628C17.5888 19.0383 17.6176 19.0094 17.2425 18.5472C16.8673 18.0851 16.6365 17.9407 16.6365 18.1718Z" fill="#FF4800"/>
<path d="M86.7588 22.7066C86.1239 23.2265 86.1239 23.2554 86.6722 22.9954C87.0185 22.8221 87.3936 22.5332 87.4802 22.3888C87.7399 21.9556 87.5668 22.0422 86.7588 22.7066Z" fill="#FF4800"/>
<path d="M90.741 32.1229C90.943 32.2096 91.2027 32.1807 91.2893 32.0941C91.4047 32.0074 91.2316 31.9208 90.9142 31.9496C90.5967 31.9496 90.5102 32.0363 90.741 32.1229Z" fill="#FF4800"/>
<path d="M91.8953 36.1669C92.0685 36.2247 92.4148 36.2247 92.6168 36.1669C92.7899 36.0802 92.6456 36.0225 92.2416 36.0225C91.8376 36.0225 91.6933 36.0802 91.8953 36.1669Z" fill="#FF4800"/>
<path d="M0.130428 38.1887C0.332426 38.2754 0.592137 38.2465 0.678707 38.1599C0.794135 38.0732 0.620995 37.9865 0.303569 38.0154C-0.0138567 38.0154 -0.100427 38.1021 0.130428 38.1887Z" fill="#FF4800"/>
<path d="M93.0496 38.7664C93.2516 38.853 93.5113 38.8241 93.5979 38.7375C93.7133 38.6508 93.5402 38.5642 93.2228 38.5931C92.9053 38.5931 92.8188 38.6797 93.0496 38.7664Z" fill="#FF4800"/>
<path d="M9.65338 43.0991C9.85538 43.1858 10.1151 43.1569 10.2017 43.0703C10.3171 42.9836 10.1439 42.8969 9.82652 42.9258C9.50909 42.9258 9.42252 43.0125 9.65338 43.0991Z" fill="#FF4800"/>
<path d="M9.076 46.5653C9.24914 46.6231 9.59542 46.6231 9.79742 46.5653C9.97056 46.4787 9.82628 46.4209 9.42228 46.4209C9.01829 46.4209 8.874 46.4787 9.076 46.5653Z" fill="#FF4800"/>
<path d="M92.1839 52.3422C92.3859 52.4288 92.6456 52.4 92.7322 52.3133C92.8476 52.2266 92.6745 52.14 92.357 52.1689C92.0396 52.1689 91.953 52.2555 92.1839 52.3422Z" fill="#FF4800"/>
<path d="M6.76764 52.631C6.96963 52.7177 7.22934 52.6888 7.31591 52.6021C7.43134 52.5155 7.2582 52.4288 6.94078 52.4577C6.62335 52.4577 6.53678 52.5443 6.76764 52.631Z" fill="#FF4800"/>
<path d="M86.701 52.9199C86.903 53.0066 87.1627 52.9777 87.2493 52.8911C87.3647 52.8044 87.1916 52.7177 86.8741 52.7466C86.5567 52.7466 86.4701 52.8333 86.701 52.9199Z" fill="#FF4800"/>
<path d="M91.3182 59.2744C91.5202 59.3611 91.7799 59.3322 91.8665 59.2455C91.9819 59.1589 91.8087 59.0722 91.4913 59.1011C91.1739 59.1011 91.0873 59.1878 91.3182 59.2744Z" fill="#FF4800"/>
<path d="M14.0106 78.9159C13.6355 79.3781 13.6644 79.4069 14.1261 79.0314C14.3858 78.8293 14.6166 78.5982 14.6166 78.5404C14.6166 78.3093 14.3858 78.4538 14.0106 78.9159Z" fill="#FF4800"/>
<path d="M53.3425 84.2019C53.3425 84.6063 53.4002 84.7507 53.4868 84.5485C53.5445 84.3752 53.5445 84.0286 53.4868 83.8264C53.4002 83.6531 53.3425 83.7975 53.3425 84.2019Z" fill="#FF4800"/>
<path d="M44.368 86.686C44.368 87.0037 44.4545 87.0903 44.5411 86.8593C44.6277 86.6571 44.5988 86.3971 44.5122 86.3104C44.4257 86.1949 44.3391 86.3682 44.368 86.686Z" fill="#FF4800"/>
<path d="M56.1993 90.441C56.1993 90.7587 56.2858 90.8453 56.3724 90.6143C56.459 90.4121 56.4301 90.1521 56.3435 90.0655C56.257 89.9499 56.1704 90.1232 56.1993 90.441Z" fill="#FF4800"/>
<path d="M36.6055 91.4231C36.6055 91.8275 36.6632 91.9719 36.7498 91.7697C36.8075 91.5964 36.8075 91.2498 36.7498 91.0476C36.6632 90.8743 36.6055 91.0187 36.6055 91.4231Z" fill="#FF4800"/>
<path d="M48.6966 91.3075C48.6966 91.6253 48.7831 91.7119 48.8697 91.4808C48.9563 91.2787 48.9274 91.0187 48.8409 90.932C48.7543 90.8165 48.6677 90.9898 48.6966 91.3075Z" fill="#FF4800"/>
<path d="M51.3225 92.4339C51.3225 92.8961 51.3802 93.0694 51.4668 92.7805C51.5245 92.5206 51.5245 92.1162 51.4668 91.914C51.3802 91.7407 51.3225 91.9429 51.3225 92.4339Z" fill="#FF4800"/>
<path d="M40.0396 92.4628C40.0396 92.7805 40.1262 92.8672 40.2127 92.6361C40.2993 92.4339 40.2705 92.174 40.1839 92.0873C40.0973 91.9718 40.0107 92.1451 40.0396 92.4628Z" fill="#FF4800"/>
<path d="M36.2879 92.7517C36.2879 93.0695 36.3745 93.1561 36.461 92.9251C36.5476 92.7229 36.5187 92.4629 36.4322 92.3762C36.3456 92.2607 36.259 92.434 36.2879 92.7517Z" fill="#FF4800"/>
</svg>
