<?xml version="1.0" encoding="UTF-8" standalone="no"?>
<!DOCTYPE svg PUBLIC "-//W3C//DTD SVG 1.1//EN" "http://www.w3.org/Graphics/SVG/1.1/DTD/svg11.dtd">
<svg width="100%" height="100%" viewBox="0 0 1562 267" version="1.1" xmlns="http://www.w3.org/2000/svg" xmlns:xlink="http://www.w3.org/1999/xlink" xml:space="preserve" xmlns:serif="http://www.serif.com/" style="fill-rule:evenodd;clip-rule:evenodd;stroke-linejoin:round;stroke-miterlimit:2;">
    <g transform="matrix(1,0,0,1,-7468,-1767)">
        <g transform="matrix(2.17411,0,0,0.902088,1500.33,509.448)">
            <path d="M2744.87,1689.72L2744.87,1394.24L2854.79,1465.41C2854.79,1465.41 2886.08,1506.29 2903.16,1517.05C2919.5,1527.34 2954.49,1553.8 2954.49,1553.8L3002.67,1526.38C3002.67,1526.38 3239.83,1466.69 3253.34,1455.83C3256.61,1453.2 3265.54,1466.32 3265.54,1466.32L3286.42,1469.82C3286.42,1469.82 3355.32,1427.72 3360.94,1424.94C3384.9,1413.12 3382.47,1396.87 3388.1,1399.88C3391.79,1401.85 3463.54,1422.7 3463.54,1422.7L3463.54,1689.72L2744.87,1689.72Z" style="fill:rgb(59,112,125);"/>
        </g>
    </g>
</svg>
