<?xml version="1.0" encoding="UTF-8" standalone="no"?>
<!DOCTYPE svg PUBLIC "-//W3C//DTD SVG 1.1//EN" "http://www.w3.org/Graphics/SVG/1.1/DTD/svg11.dtd">
<svg width="100%" height="100%" viewBox="0 0 1562 285" version="1.1" xmlns="http://www.w3.org/2000/svg" xmlns:xlink="http://www.w3.org/1999/xlink" xml:space="preserve" xmlns:serif="http://www.serif.com/" style="fill-rule:evenodd;clip-rule:evenodd;stroke-linejoin:round;stroke-miterlimit:2;">
    <g transform="matrix(1,0,0,1,-7468,-2409)">
        <g transform="matrix(2.17411,0,0,0.902088,1500.33,1170.43)">
            <path d="M2744.87,1689.72L2744.87,1685.19C2744.87,1685.19 2823.97,1626.8 2811.64,1626.31C2810.57,1626.27 2816.52,1619.02 2816.52,1619.02C2816.52,1619.02 2858.07,1590.69 2861.55,1584.25C2866.8,1574.53 2919.58,1535.23 2942.57,1532.4C2945.76,1532.01 2944.64,1536.05 2946.68,1536.88C2949.26,1537.92 2957.61,1534.92 2960.12,1534.72C2979.18,1533.21 2999.61,1539.52 3003.01,1543.47C3005.52,1546.38 3041.93,1550.43 3046.01,1550.71C3049.73,1550.96 3069.81,1552.91 3069.81,1552.91L3074.19,1534.43L3153.06,1465.55C3153.06,1465.55 3176.79,1461.54 3185.9,1465.55C3200.09,1471.78 3210.59,1493.35 3222.91,1501.04C3229.71,1505.29 3239.66,1498.61 3244.95,1498.62C3255.87,1498.63 3255.9,1502.84 3262.96,1493.99C3269.8,1485.41 3278.1,1485.48 3283.92,1482.16C3304.14,1470.66 3308.58,1456.06 3317.09,1439.62C3324.32,1425.65 3313.71,1426.11 3327.93,1434.75C3348.44,1447.22 3394.74,1472.95 3403.34,1465.55C3417.91,1453.01 3463.54,1373.07 3463.54,1373.07L3463.54,1689.72L2744.87,1689.72Z" style="fill:rgb(59,112,125);"/>
        </g>
    </g>
</svg>
