<?xml version="1.0" encoding="UTF-8" standalone="no"?>
<!DOCTYPE svg PUBLIC "-//W3C//DTD SVG 1.1//EN" "http://www.w3.org/Graphics/SVG/1.1/DTD/svg11.dtd">
<svg width="100%" height="100%" viewBox="0 0 1562 293" version="1.1" xmlns="http://www.w3.org/2000/svg" xmlns:xlink="http://www.w3.org/1999/xlink" xml:space="preserve" xmlns:serif="http://www.serif.com/" style="fill-rule:evenodd;clip-rule:evenodd;stroke-linejoin:round;stroke-miterlimit:2;">
    <g transform="matrix(1,0,0,1,-7468,-3015)">
        <g transform="matrix(2.17411,0,0,0.902088,1500.33,1784.23)">
            <path d="M2744.87,1689.72L2744.87,1394.24L2854.79,1465.41C2854.79,1465.41 2886.08,1506.29 2903.16,1517.05C2919.5,1527.34 2957.27,1458.61 2957.27,1458.61L3057.99,1384.37C3057.99,1384.37 3157.92,1409.6 3171.43,1398.74C3174.7,1396.11 3208.5,1400.18 3208.5,1400.18L3281.03,1366.05C3281.03,1366.05 3355.32,1427.72 3360.94,1424.94C3384.9,1413.12 3382.47,1396.87 3388.1,1399.88C3391.79,1401.85 3463.54,1422.7 3463.54,1422.7L3463.54,1689.72L2744.87,1689.72Z" style="fill:rgb(59,112,125);"/>
        </g>
    </g>
</svg>
