<?xml version="1.0" encoding="UTF-8" standalone="no"?>
<!DOCTYPE svg PUBLIC "-//W3C//DTD SVG 1.1//EN" "http://www.w3.org/Graphics/SVG/1.1/DTD/svg11.dtd">
<svg width="100%" height="100%" viewBox="0 0 85 39" version="1.1" xmlns="http://www.w3.org/2000/svg" xmlns:xlink="http://www.w3.org/1999/xlink" xml:space="preserve" xmlns:serif="http://www.serif.com/" style="fill-rule:evenodd;clip-rule:evenodd;stroke-linejoin:round;stroke-miterlimit:2;">
    <g transform="matrix(1,0,0,1,-2035,-5995)">
        <g transform="matrix(1,0,0,1,0,134.225)">
            <g transform="matrix(0.250321,0,0,0.250321,1551.35,4388.6)">
                <g id="Base">
                    <path d="M1940.01,5914.36L1933.71,5958.17C1933.71,5958.17 1931.03,5974.09 1941.02,5983.6C1951.01,5993.12 1983.56,6021.52 1983.56,6021.52L2004.94,6032.66L2212.58,6033.02C2212.58,6033.02 2247.3,6009.49 2256.71,5999.84C2263.13,5993.25 2267.92,5984.27 2269.02,5975.13C2270.67,5961.49 2266.61,5917.98 2266.61,5917.98L2220.03,5882.94L1997.27,5882.01L1967.81,5887.9L1940.01,5914.36Z" style="fill:rgb(6,10,7);"/>
                </g>
            </g>
        </g>
    </g>
</svg>
