<?xml version="1.0" encoding="UTF-8" standalone="no"?>
<!DOCTYPE svg PUBLIC "-//W3C//DTD SVG 1.1//EN" "http://www.w3.org/Graphics/SVG/1.1/DTD/svg11.dtd">
<svg width="100%" height="100%" viewBox="0 0 31 29" version="1.1" xmlns="http://www.w3.org/2000/svg" xmlns:xlink="http://www.w3.org/1999/xlink" xml:space="preserve" xmlns:serif="http://www.serif.com/" style="fill-rule:evenodd;clip-rule:evenodd;stroke-linejoin:round;stroke-miterlimit:2;">
    <g transform="matrix(1,0,0,1,-1940,-5995)">
        <g transform="matrix(1,0,0,1,0,134.225)">
            <g id="_-Thumb" serif:id=" Thumb" transform="matrix(1.18513,0,0,1,-420.331,-134.225)">
                <path d="M1998.57,5995.22C1998.57,5995.22 1993.23,6001.65 1992.15,6003.43C1991.07,6005.21 1992.08,6010.79 1992.15,6014.12C1992.21,6017.45 1996.89,6020.32 1996.89,6020.32C1996.89,6020.32 1998.87,6023.59 2001.85,6023.69C2004.83,6023.79 2009.19,6023.86 2009.19,6023.86L2015.11,6017.36C2015.11,6017.36 2017.28,6012.49 2017.5,6010.33C2017.78,6007.52 2017.5,6002.07 2017.5,6002.07L2008.67,5995.22L1998.57,5995.22Z" style="fill:rgb(6,10,7);"/>
            </g>
        </g>
    </g>
</svg>
