<?xml version="1.0" encoding="UTF-8" standalone="no"?><!DOCTYPE svg PUBLIC "-//W3C//DTD SVG 1.1//EN" "http://www.w3.org/Graphics/SVG/1.1/DTD/svg11.dtd"><svg width="100%" height="100%" viewBox="0 0 376 75" version="1.1" xmlns="http://www.w3.org/2000/svg" xmlns:xlink="http://www.w3.org/1999/xlink" xml:space="preserve" xmlns:serif="http://www.serif.com/" style="fill-rule:evenodd;clip-rule:evenodd;stroke-linejoin:round;stroke-miterlimit:2;"><path d="M375.017,74.334l-374.992,-0l0,-22.262l6.375,7.454l21.251,5.766c0,0 32.113,-10.369 36.817,-11.786c8.732,-2.632 3.533,1.054 26.188,0.267c13.177,-0.458 36.084,-9.214 55.476,-11.425c18.165,-2.072 32.982,2.466 41.389,-0c3.522,-1.034 10.791,-4.792 15.867,-9.007c2.557,-2.123 1.705,-4.822 5.306,-6.416c5.574,-2.465 12.707,-8.904 19.73,-10.681c8.768,-2.219 15.323,1.675 24.185,0.872c20.42,-1.852 40.907,-6.124 41.925,-6.754c12.81,-7.934 16.994,-7.179 16.994,-7.179l24.315,7.179c0,-0 17.092,-2.624 22.796,-6.18c10.758,-6.706 16.378,-3.407 16.378,-3.407l0,73.559Z" style="fill:#fff;"/></svg>