<?xml version="1.0" encoding="UTF-8" standalone="no"?>
<!DOCTYPE svg PUBLIC "-//W3C//DTD SVG 1.1//EN" "http://www.w3.org/Graphics/SVG/1.1/DTD/svg11.dtd">
<svg width="100%" height="100%" viewBox="0 0 1563 405" version="1.1" xmlns="http://www.w3.org/2000/svg" xmlns:xlink="http://www.w3.org/1999/xlink" xml:space="preserve" xmlns:serif="http://www.serif.com/" style="fill-rule:evenodd;clip-rule:evenodd;stroke-linejoin:round;stroke-miterlimit:2;">
    <g transform="matrix(1,0,0,1,-9196,-2289)">
        <g transform="matrix(4.00632,0,0,4.00632,-1800.72,-4753.42)">
            <path d="M2744.87,1859.09L3134.87,1859.09L3134.87,1828.46L3123.28,1823.44C3123.28,1823.44 3089.14,1843.06 3079.4,1840.77C3067.36,1837.94 3071.71,1834.3 3060.75,1830.96C3055.08,1829.24 3056.82,1824.89 3052.05,1823.44C3045.59,1821.48 3040.24,1819.86 3036.79,1818.82C3031.53,1817.23 3020.01,1823.65 3010.6,1823.44C2985.41,1822.88 2956.37,1823.44 2956.37,1823.44L2953.31,1830.49L2896.7,1821.56L2864.14,1811.08L2858.73,1801.7L2808.94,1794.86L2788.26,1775.67L2744.87,1758.14L2744.87,1859.09Z" style="fill:rgb(249,184,93);"/>
        </g>
    </g>
</svg>
