<?xml version="1.0" encoding="UTF-8" standalone="no"?>
<!DOCTYPE svg PUBLIC "-//W3C//DTD SVG 1.1//EN" "http://www.w3.org/Graphics/SVG/1.1/DTD/svg11.dtd">
<svg width="100%" height="100%" viewBox="0 0 1563 310" version="1.1" xmlns="http://www.w3.org/2000/svg" xmlns:xlink="http://www.w3.org/1999/xlink" xml:space="preserve" xmlns:serif="http://www.serif.com/" style="fill-rule:evenodd;clip-rule:evenodd;stroke-linejoin:round;stroke-miterlimit:2;">
    <g transform="matrix(1,0,0,1,-9196,-2998)">
        <g transform="matrix(-4.00632,0,0,4.00632,21755.4,-4139.62)">
            <path d="M2744.87,1859.09L3134.87,1859.09L3112.06,1851.26L3065.17,1842.38C3061.72,1841.48 3061.14,1843.3 3058.97,1843.28C3058.17,1843.28 3057.14,1843.13 3055.83,1842.73C3046.75,1839.99 3058.97,1841.12 3035.41,1840.3C3029.49,1840.1 3014.05,1834.03 3014.05,1834.03L3013.53,1829.61C3013.53,1829.61 3008.45,1830.99 3002.7,1831.56C2995.42,1832.28 2986.4,1831.58 2985.26,1831.05C2969.87,1823.92 2945.94,1814.73 2941.55,1813.44C2937.89,1812.37 2938.7,1817.62 2933.43,1813.23C2930.77,1811.03 2919.62,1799.64 2919.62,1799.64C2919.62,1799.64 2904.63,1800.53 2897.33,1798.68C2888.21,1796.37 2881.39,1800.42 2872.18,1799.58C2850.94,1797.66 2826.95,1794.76 2826.95,1794.76L2810.9,1785.09L2785.61,1792.56C2785.61,1792.56 2767.83,1789.83 2761.9,1786.13C2750.71,1779.16 2744.87,1782.59 2744.87,1782.59L2744.87,1859.09Z" style="fill:white;"/>
        </g>
    </g>
</svg>
